<svg width="28" height="22" viewBox="0 0 28 22" fill="none" xmlns="http://www.w3.org/2000/svg">
<path d="M27.8832 10.45C25.0561 4.00125 19.738 0 14 0C8.262 0 2.94385 4.00125 0.116838 10.45C0.0397762 10.6235 0 10.8107 0 11C0 11.1893 0.0397762 11.3765 0.116838 11.55C2.94385 17.9987 8.262 22 14 22C19.738 22 25.0561 17.9987 27.8832 11.55C27.9602 11.3765 28 11.1893 28 11C28 10.8107 27.9602 10.6235 27.8832 10.45ZM14 19.25C9.56355 19.25 5.36501 16.1013 2.94385 11C5.36501 5.89875 9.56355 2.75 14 2.75C18.4365 2.75 22.635 5.89875 25.0561 11C22.635 16.1013 18.4365 19.25 14 19.25ZM14 5.5C12.8928 5.5 11.8105 5.82257 10.8899 6.42692C9.9693 7.03127 9.25178 7.89025 8.82808 8.89524C8.40437 9.90023 8.29351 11.0061 8.50952 12.073C8.72552 13.1399 9.25868 14.1199 10.0416 14.8891C10.8245 15.6583 11.822 16.1821 12.9079 16.3943C13.9938 16.6065 15.1194 16.4976 16.1423 16.0813C17.1652 15.6651 18.0395 14.9601 18.6546 14.0556C19.2697 13.1512 19.598 12.0878 19.598 11C19.598 9.54131 19.0083 8.14236 17.9584 7.11091C16.9086 6.07946 15.4847 5.5 14 5.5ZM14 13.75C13.4464 13.75 12.9052 13.5887 12.4449 13.2865C11.9846 12.9844 11.6259 12.5549 11.414 12.0524C11.2022 11.5499 11.1468 10.9969 11.2548 10.4635C11.3628 9.93005 11.6293 9.44005 12.0208 9.05546C12.4122 8.67086 12.911 8.40895 13.4539 8.30284C13.9969 8.19673 14.5597 8.25119 15.0711 8.45933C15.5826 8.66747 16.0197 9.01995 16.3273 9.47218C16.6349 9.92442 16.799 10.4561 16.799 11C16.799 11.7293 16.5041 12.4288 15.9792 12.9445C15.4543 13.4603 14.7423 13.75 14 13.75Z" fill="white" fill-opacity="0.8"/>
</svg>
