<svg width="50" height="29" viewBox="0 0 50 29" fill="none" xmlns="http://www.w3.org/2000/svg">
    <path fill-rule="evenodd" clip-rule="evenodd"
        d="M47.225 23.59C25.915 26.375 10.705 29.72 10.48 15.99C10.48 15.99 10.945 10.67 17.47 10.335C17.47 10.335 17.69 5.61 22.675 5.075C25.355 4.785 28.4 7.545 28.73 10.45C28.73 10.45 35.325 9.23 35.61 15.66C35.71 17.9 35.205 21.71 28.845 21.545C28.845 21.545 25.165 21.045 24.665 15.355C23.63 26.37 39.555 25.73 39.785 15.725C39.885 11.4 37.115 6.95 30.875 7.785C27.455 -0.82 18.35 -0.325 14.96 7.655C10.115 7.655 6.40996 11.385 6.46496 16.255C6.64996 31.93 28.465 27.205 47.225 23.59Z"
        fill="white" />
</svg>