<svg width="101" height="29" viewBox="0 0 101 29" fill="none" xmlns="http://www.w3.org/2000/svg">
<path d="M34.6499 23V6.27273H45.3658V8.81286H37.68V13.354H44.6307V15.8942H37.68V23H34.6499ZM47.9957 23V10.4545H50.9524V23H47.9957ZM49.4822 8.67401C49.014 8.67401 48.611 8.51882 48.2734 8.20845C47.9358 7.89264 47.767 7.5142 47.767 7.07315C47.767 6.62666 47.9358 6.24822 48.2734 5.93785C48.611 5.62204 49.014 5.46413 49.4822 5.46413C49.956 5.46413 50.3589 5.62204 50.6911 5.93785C51.0286 6.24822 51.1974 6.62666 51.1974 7.07315C51.1974 7.5142 51.0286 7.89264 50.6911 8.20845C50.3589 8.51882 49.956 8.67401 49.4822 8.67401ZM59.4488 27.9659C58.387 27.9659 57.4749 27.8216 56.7126 27.533C55.9503 27.2499 55.3377 26.8687 54.8749 26.3896C54.4121 25.9104 54.0908 25.3795 53.9111 24.7969L56.5738 24.1516C56.6936 24.3967 56.8678 24.639 57.0965 24.8786C57.3252 25.1236 57.6328 25.325 58.0194 25.483C58.4115 25.6463 58.9043 25.728 59.4978 25.728C60.3363 25.728 61.0306 25.5238 61.5805 25.1154C62.1305 24.7125 62.4055 24.0482 62.4055 23.1225V20.7457H62.2584C62.106 21.0507 61.8827 21.3638 61.5887 21.685C61.3001 22.0063 60.9162 22.2758 60.4371 22.4936C59.9633 22.7114 59.3671 22.8203 58.6483 22.8203C57.6846 22.8203 56.8106 22.5943 56.0265 22.1424C55.2479 21.685 54.6272 21.0044 54.1643 20.1005C53.7069 19.1912 53.4782 18.0531 53.4782 16.6864C53.4782 15.3088 53.7069 14.1463 54.1643 13.1989C54.6272 12.246 55.2506 11.5245 56.0347 11.0344C56.8188 10.5389 57.6927 10.2912 58.6565 10.2912C59.3916 10.2912 59.996 10.4164 60.4697 10.6669C60.9489 10.9119 61.33 11.2087 61.6132 11.5572C61.8963 11.9002 62.1114 12.2242 62.2584 12.5291H62.4218V10.4545H65.3376V23.2042C65.3376 24.2769 65.0817 25.1644 64.5699 25.8668C64.058 26.5692 63.3583 27.0947 62.4708 27.4432C61.5832 27.7917 60.5759 27.9659 59.4488 27.9659ZM59.4733 20.5007C60.0995 20.5007 60.6331 20.3482 61.0741 20.0433C61.5152 19.7384 61.8501 19.3001 62.0787 18.7283C62.3074 18.1566 62.4218 17.4705 62.4218 16.6701C62.4218 15.8806 62.3074 15.189 62.0787 14.5955C61.8555 14.002 61.5233 13.5419 61.0823 13.2152C60.6467 12.883 60.1104 12.717 59.4733 12.717C58.8144 12.717 58.2645 12.8885 57.8234 13.2315C57.3824 13.5746 57.0502 14.0456 56.827 14.6445C56.6037 15.238 56.4921 15.9132 56.4921 16.6701C56.4921 17.4379 56.6037 18.1103 56.827 18.6875C57.0557 19.2592 57.3905 19.7057 57.8316 20.027C58.2781 20.3428 58.8253 20.5007 59.4733 20.5007ZM68.3678 23V10.4545H71.1938V12.5863H71.3408C71.6022 11.8675 72.0351 11.3067 72.6395 10.9038C73.2439 10.4954 73.9653 10.2912 74.8039 10.2912C75.6533 10.2912 76.3693 10.4981 76.952 10.9119C77.54 11.3203 77.9539 11.8784 78.1934 12.5863H78.3241C78.6018 11.8893 79.0701 11.3339 79.729 10.9201C80.3933 10.5008 81.1801 10.2912 82.0894 10.2912C83.2438 10.2912 84.1858 10.656 84.9154 11.3857C85.645 12.1153 86.0099 13.1798 86.0099 14.5792V23H83.045V15.0366C83.045 14.2579 82.8381 13.6889 82.4243 13.3295C82.0104 12.9647 81.5041 12.7823 80.9051 12.7823C80.1918 12.7823 79.6337 13.0056 79.2307 13.4521C78.8332 13.8931 78.6345 14.4676 78.6345 15.1754V23H75.735V14.9141C75.735 14.2661 75.539 13.7488 75.1469 13.3622C74.7603 12.9756 74.2539 12.7823 73.6278 12.7823C73.203 12.7823 72.8164 12.8912 72.468 13.109C72.1195 13.3214 71.8418 13.6236 71.6349 14.0156C71.4279 14.4022 71.3245 14.8542 71.3245 15.3714V23H68.3678ZM92.6195 23.2532C91.8245 23.2532 91.1085 23.1116 90.4714 22.8285C89.8398 22.5399 89.3388 22.1152 88.9686 21.5543C88.6038 20.9935 88.4213 20.302 88.4213 19.4798C88.4213 18.7719 88.552 18.1866 88.8134 17.7237C89.0748 17.2609 89.4314 16.8906 89.8833 16.6129C90.3353 16.3352 90.8444 16.1256 91.4107 15.984C91.9824 15.837 92.5732 15.7308 93.1831 15.6655C93.9181 15.5893 94.5144 15.5212 94.9718 15.4613C95.4292 15.396 95.7613 15.2979 95.9682 15.1673C96.1806 15.0311 96.2868 14.8215 96.2868 14.5384V14.4893C96.2868 13.8741 96.1043 13.3976 95.7395 13.06C95.3747 12.7224 94.8493 12.5536 94.1632 12.5536C93.439 12.5536 92.8645 12.7115 92.4398 13.0273C92.0205 13.3432 91.7374 13.7161 91.5904 14.1463L88.8297 13.7543C89.0475 12.992 89.4069 12.3549 89.9078 11.843C90.4088 11.3258 91.0214 10.9392 91.7456 10.6832C92.4698 10.4219 93.2702 10.2912 94.1468 10.2912C94.7512 10.2912 95.3529 10.362 95.9519 10.5036C96.5508 10.6451 97.0981 10.8793 97.5936 11.206C98.0891 11.5272 98.4866 11.9656 98.786 12.521C99.091 13.0763 99.2434 13.7706 99.2434 14.6037V23H96.4011V21.2766H96.3031C96.1234 21.6251 95.8702 21.9518 95.5435 22.2567C95.2222 22.5562 94.8166 22.7985 94.3265 22.9837C93.8419 23.1634 93.2729 23.2532 92.6195 23.2532ZM93.3873 21.0806C93.9808 21.0806 94.4953 20.9635 94.9309 20.7294C95.3665 20.4898 95.7014 20.174 95.9355 19.782C96.1751 19.3899 96.2949 18.9625 96.2949 18.4996V17.0213C96.2024 17.0975 96.0444 17.1683 95.8212 17.2337C95.6034 17.299 95.3584 17.3562 95.0861 17.4052C94.8139 17.4542 94.5443 17.4978 94.2775 17.5359C94.0107 17.574 93.7793 17.6067 93.5833 17.6339C93.1422 17.6938 92.7475 17.7918 92.399 17.9279C92.0505 18.064 91.7755 18.2546 91.574 18.4996C91.3726 18.7392 91.2718 19.0496 91.2718 19.4308C91.2718 19.9753 91.4706 20.3864 91.8681 20.6641C92.2656 20.9418 92.772 21.0806 93.3873 21.0806Z" fill="white" fill-opacity="0.85"/>
<g clip-path="url(#clip0_38_417)">
<path d="M4.50093 26C6.98443 26 9.00003 24.0587 9.00003 21.6667V17.3333H4.50093C2.01743 17.3333 0.00183105 19.2747 0.00183105 21.6667C0.00183105 24.0587 2.01743 26 4.50093 26Z" fill="#0ACF83"/>
<path d="M0.00183105 13C0.00183105 10.608 2.01743 8.66667 4.50093 8.66667H9.00003V17.3333H4.50093C2.01743 17.3333 0.00183105 15.392 0.00183105 13Z" fill="#A259FF"/>
<path d="M0.00183105 4.33333C0.00183105 1.94133 2.01743 0 4.50093 0H9.00003V8.66667H4.50093C2.01743 8.66667 0.00183105 6.72533 0.00183105 4.33333Z" fill="#F24E1E"/>
<path d="M9 0H13.4991C15.9826 0 17.9982 1.94133 17.9982 4.33333C17.9982 6.72533 15.9826 8.66667 13.4991 8.66667H9V0Z" fill="#FF7262"/>
<path d="M17.9982 13C17.9982 15.392 15.9826 17.3333 13.4991 17.3333C11.0156 17.3333 9 15.392 9 13C9 10.608 11.0156 8.66667 13.4991 8.66667C15.9826 8.66667 17.9982 10.608 17.9982 13Z" fill="#1ABCFE"/>
</g>
<defs>
<clipPath id="clip0_38_417">
<rect width="18" height="26" fill="white"/>
</clipPath>
</defs>
</svg>
