<svg width="18" height="26" viewBox="0 0 18 26" fill="none" xmlns="http://www.w3.org/2000/svg">
	<g clip-path="url(#clip0_167_151)">
		<path d="M4.50105 26C6.98456 26 9.00015 24.0587 9.00015 21.6667V17.3333H4.50105C2.01755 17.3333 0.00195312 19.2747 0.00195312 21.6667C0.00195312 24.0587 2.01755 26 4.50105 26Z" fill="#0ACF83" />
		<path d="M0.00195312 13C0.00195312 10.608 2.01755 8.66667 4.50105 8.66667H9.00015V17.3333H4.50105C2.01755 17.3333 0.00195312 15.392 0.00195312 13Z" fill="#A259FF" />
		<path d="M0.00195312 4.33333C0.00195312 1.94133 2.01755 0 4.50105 0H9.00015V8.66667H4.50105C2.01755 8.66667 0.00195312 6.72533 0.00195312 4.33333Z" fill="#F24E1E" />
		<path d="M9 0H13.4991C15.9826 0 17.9982 1.94133 17.9982 4.33333C17.9982 6.72533 15.9826 8.66667 13.4991 8.66667H9V0Z" fill="#FF7262" />
		<path d="M17.9982 13C17.9982 15.392 15.9826 17.3333 13.4991 17.3333C11.0156 17.3333 9 15.392 9 13C9 10.608 11.0156 8.66667 13.4991 8.66667C15.9826 8.66667 17.9982 10.608 17.9982 13Z" fill="#1ABCFE" />
	</g>
	<defs>
		<clipPath id="clip0_167_151">
			<rect width="18" height="26" fill="white" />
		</clipPath>
	</defs>
</svg>
