<svg width="38" height="36" viewBox="0 0 38 36" fill="none" xmlns="http://www.w3.org/2000/svg">
	<path d="M15.1377 0.279946C10.2961 1.3596 6.32766 4.04287 3.59735 8.10746C-1.1807 15.2681 -0.228266 24.8739 5.86732 31.0025C7.69282 32.8443 10.4708 34.6226 12.5661 35.3053C13.3439 35.5593 13.4392 35.5593 13.7884 35.3212C14.1694 35.0671 14.1853 35.0036 14.1853 33.1777V31.3042L12.7883 31.3836C11.1533 31.463 9.88342 31.1772 9.12147 30.5262C8.85161 30.3039 8.32778 29.5418 7.96267 28.8432C7.35947 27.6683 6.915 27.1285 5.67683 26.0329C5.26411 25.6678 5.24823 25.6519 5.53397 25.4455C6.21654 24.9374 7.59757 25.4296 8.47064 26.4775C9.99454 28.3351 10.5819 28.8273 11.4549 29.0179C12.2328 29.1766 12.9471 29.1131 14.0265 28.7956C14.1694 28.748 14.3599 28.4145 14.4551 28.0335C14.5504 27.6683 14.8043 27.1126 15.0107 26.8109L15.3917 26.2552L14.1059 26.0012C11.4073 25.4455 9.74055 24.477 8.64525 22.8257C7.62932 21.3015 7.29597 19.9837 7.2801 17.5227C7.2801 15.2046 7.53408 14.252 8.53414 12.95C8.97861 12.3785 9.02623 12.2038 8.89924 11.8704C8.66113 11.2988 8.72462 8.88545 8.9786 8.15509C9.18497 7.61526 9.29608 7.52 9.72468 7.47237C10.439 7.39298 11.7724 7.85342 13.1217 8.61553L14.2805 9.28238L15.2964 9.04422C16.741 8.7108 21.0745 8.72667 22.3762 9.04422L23.3604 9.29826L24.2811 8.74255C25.5034 8.01219 27.059 7.44061 27.8368 7.44061C28.4559 7.44061 28.4559 7.45649 28.7099 8.26623C28.9797 9.20299 29.0274 10.9019 28.7893 11.7116C28.6623 12.1879 28.694 12.3308 29.0432 12.7913C30.7735 15.0776 30.964 18.8723 29.5036 21.9842C28.5194 24.0324 26.4399 25.4614 23.6461 25.9853L22.3127 26.2393L22.8048 27.1126L23.3128 28.0017L23.3604 31.5424L23.4239 35.083L23.8207 35.337C24.1858 35.5752 24.2652 35.5752 25.0271 35.3053C26.2971 34.8766 28.4718 33.7017 29.6623 32.7967C36.7421 27.4936 39.0279 17.9831 35.1071 10.0762C32.8054 5.42419 28.4559 1.8518 23.4715 0.518106C21.2968 -0.053477 17.2013 -0.180495 15.1377 0.279946Z" fill="white" />
</svg>
