<svg width="40" height="41" viewBox="0 0 40 41" fill="none" xmlns="http://www.w3.org/2000/svg">
	<path d="M19.6344 1.10095C11.564 1.10095 9.2037 1.10928 8.7449 1.14734C7.08872 1.28501 6.05815 1.54579 4.93539 2.1048C4.07014 2.53447 3.38774 3.03253 2.71427 3.7307C1.48774 5.00395 0.744396 6.57038 0.475304 8.43237C0.344475 9.33631 0.306416 9.52067 0.298685 14.1379C0.295711 15.677 0.298685 17.7025 0.298685 20.4194C0.298685 28.4835 0.307605 30.8414 0.346259 31.2993C0.480062 32.911 0.7328 33.9249 1.26801 35.034C2.29086 37.1571 4.24438 38.7509 6.54578 39.3456C7.34265 39.5508 8.22278 39.6637 9.35267 39.7173C9.83138 39.7381 14.7107 39.753 19.593 39.753C24.4753 39.753 29.3577 39.747 29.8245 39.7232C31.1328 39.6617 31.8925 39.5597 32.7325 39.3426C35.0487 38.7449 36.9666 37.1749 38.0102 35.0221C38.535 33.9398 38.8011 32.8872 38.9216 31.3597C38.9477 31.0267 38.9587 25.7169 38.9587 20.4143C38.9587 15.1108 38.9468 9.81088 38.9207 9.47785C38.7988 7.92569 38.5326 6.882 37.9909 5.77883C37.5464 4.87579 37.0528 4.2014 36.3362 3.51185C35.0573 2.29035 33.4933 1.54697 31.6296 1.27817C30.7266 1.14764 30.5467 1.10898 25.9261 1.10095H19.6344Z" fill="url(#paint0_radial_153_54)" />
	<path d="M19.6344 1.10095C11.564 1.10095 9.2037 1.10928 8.7449 1.14734C7.08872 1.28501 6.05815 1.54579 4.93539 2.1048C4.07014 2.53447 3.38774 3.03253 2.71427 3.7307C1.48774 5.00395 0.744396 6.57038 0.475304 8.43237C0.344475 9.33631 0.306416 9.52067 0.298685 14.1379C0.295711 15.677 0.298685 17.7025 0.298685 20.4194C0.298685 28.4835 0.307605 30.8414 0.346259 31.2993C0.480062 32.911 0.7328 33.9249 1.26801 35.034C2.29086 37.1571 4.24438 38.7509 6.54578 39.3456C7.34265 39.5508 8.22278 39.6637 9.35267 39.7173C9.83138 39.7381 14.7107 39.753 19.593 39.753C24.4753 39.753 29.3577 39.747 29.8245 39.7232C31.1328 39.6617 31.8925 39.5597 32.7325 39.3426C35.0487 38.7449 36.9666 37.1749 38.0102 35.0221C38.535 33.9398 38.8011 32.8872 38.9216 31.3597C38.9477 31.0267 38.9587 25.7169 38.9587 20.4143C38.9587 15.1108 38.9468 9.81088 38.9207 9.47785C38.7988 7.92569 38.5326 6.882 37.9909 5.77883C37.5464 4.87579 37.0528 4.2014 36.3362 3.51185C35.0573 2.29035 33.4933 1.54697 31.6296 1.27817C30.7266 1.14764 30.5467 1.10898 25.9261 1.10095H19.6344Z" fill="url(#paint1_radial_153_54)" />
	<path d="M19.6255 6.15585C15.7494 6.15585 15.263 6.1728 13.7406 6.24208C12.2212 6.31166 11.1841 6.55222 10.2766 6.90517C9.33788 7.26972 8.54161 7.75737 7.74831 8.55099C6.95441 9.34432 6.46678 10.1406 6.10105 11.079C5.74721 11.9869 5.50637 13.0243 5.43798 14.5432C5.36989 16.0656 5.35205 16.5523 5.35205 20.4286C5.35205 24.3048 5.3693 24.7898 5.43828 26.3122C5.50815 27.8316 5.7487 28.8688 6.10135 29.7763C6.46618 30.715 6.95382 31.5113 7.74742 32.3047C8.54042 33.0986 9.33669 33.5874 10.2748 33.952C11.1829 34.3049 12.2203 34.5455 13.7394 34.6151C15.2618 34.6843 15.7479 34.7013 19.6237 34.7013C23.5002 34.7013 23.9851 34.6843 25.5075 34.6151C27.0269 34.5455 28.0652 34.3049 28.9733 33.952C29.9117 33.5874 30.7068 33.0986 31.4998 32.3047C32.2937 31.5113 32.7813 30.715 33.147 29.7766C33.4979 28.8688 33.7387 27.8314 33.8101 26.3125C33.8785 24.7901 33.8963 24.3048 33.8963 20.4286C33.8963 16.5523 33.8785 16.0659 33.8101 14.5435C33.7387 13.024 33.4979 11.9869 33.147 11.0793C32.7813 10.1406 32.2937 9.34432 31.4998 8.55099C30.7059 7.75707 29.912 7.26942 28.9724 6.90517C28.0625 6.55222 27.0248 6.31166 25.5054 6.24208C23.983 6.1728 23.4984 6.15585 19.6211 6.15585H19.6255ZM18.3452 8.72792C18.7252 8.72732 19.1492 8.72792 19.6255 8.72792C23.4362 8.72792 23.8879 8.74159 25.3927 8.80998C26.7843 8.87362 27.5395 9.10614 28.0426 9.3015C28.7086 9.56019 29.1835 9.86943 29.6827 10.369C30.1823 10.8685 30.4915 11.3443 30.7508 12.0103C30.9461 12.5129 31.1789 13.2681 31.2423 14.6597C31.3107 16.1643 31.3255 16.6163 31.3255 20.4253C31.3255 24.2343 31.3107 24.6863 31.2423 26.1909C31.1786 27.5825 30.9461 28.3377 30.7508 28.8403C30.4921 29.5063 30.1823 29.9806 29.6827 30.4798C29.1832 30.9794 28.7089 31.2886 28.0426 31.5473C27.5401 31.7436 26.7843 31.9755 25.3927 32.0391C23.8882 32.1075 23.4362 32.1224 19.6255 32.1224C15.8145 32.1224 15.3629 32.1075 13.8583 32.0391C12.4668 31.9749 11.7115 31.7424 11.2081 31.547C10.5421 31.2883 10.0664 30.9791 9.56683 30.4795C9.0673 29.98 8.75807 29.5054 8.49879 28.8391C8.30344 28.3365 8.07062 27.5813 8.00729 26.1897C7.9389 24.6851 7.92522 24.2331 7.92522 20.4217C7.92522 16.6103 7.9389 16.1607 8.00729 14.6561C8.07092 13.2646 8.30344 12.5093 8.49879 12.0062C8.75748 11.3401 9.0673 10.8644 9.56683 10.3648C10.0664 9.86527 10.5421 9.55603 11.2081 9.29674C11.7112 9.10049 12.4668 8.86856 13.8583 8.80463C15.175 8.74516 15.6852 8.72732 18.3452 8.72435V8.72792ZM27.244 11.0978C26.2984 11.0978 25.5313 11.864 25.5313 12.8099C25.5313 13.7555 26.2984 14.5226 27.244 14.5226C28.1895 14.5226 28.9566 13.7555 28.9566 12.8099C28.9566 11.8643 28.1895 11.0972 27.244 11.0972V11.0978ZM19.6255 13.0989C15.5778 13.0989 12.2961 16.3808 12.2961 20.4286C12.2961 24.4764 15.5778 27.7567 19.6255 27.7567C23.6732 27.7567 26.9537 24.4764 26.9537 20.4286C26.9537 16.3808 23.6732 13.0989 19.6255 13.0989ZM19.6255 15.671C22.2528 15.671 24.383 17.8009 24.383 20.4286C24.383 23.0559 22.2528 25.1861 19.6255 25.1861C16.9979 25.1861 14.8681 23.0559 14.8681 20.4286C14.8681 17.8009 16.9979 15.671 19.6255 15.671Z" fill="white" />
	<defs>
		<radialGradient id="paint0_radial_153_54" cx="0" cy="0" r="1" gradientUnits="userSpaceOnUse" gradientTransform="translate(10.5668 42.73) rotate(-90) scale(38.307 35.6372)">
			<stop stop-color="#FFDD55" />
			<stop offset="0.1" stop-color="#FFDD55" />
			<stop offset="0.5" stop-color="#FF543E" />
			<stop offset="1" stop-color="#C837AB" />
		</radialGradient>
		<radialGradient id="paint1_radial_153_54" cx="0" cy="0" r="1" gradientUnits="userSpaceOnUse" gradientTransform="translate(-6.17862 3.88538) rotate(78.678) scale(17.1235 70.5998)">
			<stop stop-color="#3771C8" />
			<stop offset="0.128" stop-color="#3771C8" />
			<stop offset="1" stop-color="#6600FF" stop-opacity="0" />
		</radialGradient>
	</defs>
</svg>
