<svg width="120" height="125" viewBox="0 0 120 125" fill="none" xmlns="http://www.w3.org/2000/svg">
<path fill-rule="evenodd" clip-rule="evenodd" d="M119.102 27.7978C119.147 27.9616 119.169 28.1305 119.17 28.3002V54.6752C119.17 55.0137 119.08 55.3462 118.911 55.6391C118.742 55.9321 118.498 56.175 118.205 56.3434L96.1032 69.0886V94.3506C96.1032 95.0381 95.7384 95.6728 95.1432 96.0189L49.008 122.62C48.9024 122.68 48.7872 122.718 48.672 122.759C48.6288 122.774 48.588 122.8 48.5424 122.812C48.2199 122.897 47.8809 122.897 47.5584 122.812C47.5056 122.798 47.4576 122.769 47.4072 122.75C47.3016 122.711 47.1912 122.678 47.0904 122.62L0.9648 96.0189C0.671778 95.8503 0.428306 95.6073 0.258923 95.3144C0.0895402 95.0215 0.000232175 94.6891 0 94.3506L0 15.2257C0 15.0526 0.024 14.8843 0.0672 14.7208C0.0816 14.6656 0.1152 14.6151 0.1344 14.5598C0.1704 14.4588 0.204 14.3555 0.2568 14.2617C0.2928 14.1992 0.3456 14.1487 0.3888 14.091C0.444 14.0141 0.4944 13.9348 0.5592 13.8675C0.6144 13.8122 0.6864 13.7713 0.7488 13.7232C0.8184 13.6656 0.8808 13.6031 0.96 13.5574L24.0264 0.256902C24.3184 0.088586 24.6495 0 24.9864 0C25.3233 0 25.6544 0.088586 25.9464 0.256902L49.0104 13.5574H49.0152C49.092 13.6055 49.1568 13.6656 49.2264 13.7208C49.2888 13.7689 49.3584 13.8122 49.4136 13.8651C49.4808 13.9348 49.5288 14.0141 49.5864 14.091C49.6272 14.1487 49.6824 14.1992 49.716 14.2617C49.7712 14.3579 49.8024 14.4588 49.8408 14.5598C49.86 14.6151 49.8936 14.6656 49.908 14.7232C49.9522 14.8871 49.9748 15.056 49.9752 15.2257V64.6463L69.1944 53.5622V28.2978C69.1944 28.1295 69.2184 27.9588 69.2616 27.7978C69.2784 27.7401 69.3096 27.6896 69.3288 27.6343C69.3672 27.5333 69.4008 27.43 69.4536 27.3362C69.4896 27.2737 69.5424 27.2232 69.5832 27.1656C69.6408 27.0886 69.6888 27.0093 69.756 26.942C69.8112 26.8867 69.8808 26.8458 69.9432 26.7978C70.0152 26.7401 70.0776 26.6776 70.1544 26.6319L93.2232 13.3314C93.5152 13.1629 93.8462 13.0741 94.1832 13.0741C94.5202 13.0741 94.8513 13.1629 95.1432 13.3314L118.207 26.6319C118.289 26.68 118.351 26.7401 118.423 26.7954C118.483 26.8434 118.553 26.8867 118.608 26.9396C118.675 27.0093 118.723 27.0886 118.781 27.1656C118.824 27.2232 118.877 27.2737 118.91 27.3362C118.966 27.43 118.997 27.5333 119.035 27.6343C119.057 27.6896 119.088 27.7401 119.102 27.7978ZM115.325 53.5622V31.6295L107.254 36.2833L96.1032 42.7136V64.6463L115.327 53.5622H115.325ZM92.2608 93.2377V71.2905L81.2928 77.5646L49.9728 95.4684V117.622L92.2608 93.2377ZM3.8448 18.555V93.2377L46.128 117.62V95.4708L24.0384 82.9492L24.0312 82.9444L24.0216 82.9396C23.9472 82.8963 23.8848 82.8338 23.8152 82.7809C23.7552 82.7329 23.6856 82.6944 23.6328 82.6415L23.628 82.6343C23.5656 82.5742 23.5224 82.4997 23.4696 82.4324C23.4216 82.3675 23.364 82.3122 23.3256 82.2449L23.3232 82.2377C23.28 82.1655 23.2536 82.079 23.2224 81.9973C23.1912 81.9252 23.1504 81.8579 23.1312 81.7809C23.1072 81.6896 23.1024 81.591 23.0928 81.4973C23.0832 81.4252 23.064 81.353 23.064 81.2809V81.2761V29.6391L11.916 23.2064L3.8448 18.555ZM24.9888 4.14632L5.772 15.2257L24.984 26.305L44.1984 15.2232L24.984 4.14632H24.9888ZM34.9824 73.2906L46.1304 66.8627V18.555L38.0592 23.2088L26.9088 29.6391V77.9468L34.9824 73.2906ZM94.1832 17.2208L74.9688 28.3002L94.1832 39.3795L113.395 28.2978L94.1832 17.2208ZM92.2608 42.7136L81.1104 36.2833L73.0392 31.6295V53.5622L84.1872 59.9901L92.2608 64.6463V42.7136ZM48.048 92.1391L76.2312 76.0237L90.3192 67.9708L71.1192 56.8987L49.0128 69.6463L28.8648 81.2641L48.048 92.1391Z" fill="#FF2D20"/>
</svg>
