<svg width="42" height="42" viewBox="0 0 42 42" fill="none" xmlns="http://www.w3.org/2000/svg">
	<g clip-path="url(#clip0_153_68)">
		<path fill-rule="evenodd" clip-rule="evenodd" d="M5.00335 41.9881H36.9848C39.5081 41.9881 41.5536 39.9426 41.5536 37.4193V5.43783C41.5536 2.91456 39.5081 0.869049 36.9848 0.869049H5.00335C2.48008 0.869049 0.43457 2.91456 0.43457 5.43783V37.4193C0.43457 39.9426 2.48008 41.9881 5.00335 41.9881Z" fill="#007EBB" />
		<path fill-rule="evenodd" clip-rule="evenodd" d="M35.8426 36.2771H29.7408V25.8843C29.7408 23.0349 28.658 21.4426 26.4027 21.4426C23.9492 21.4426 22.6674 23.0996 22.6674 25.8843V36.2771H16.787V16.479H22.6674V19.1458C22.6674 19.1458 24.4355 15.8742 28.6368 15.8742C32.8361 15.8742 35.8426 18.4386 35.8426 23.7422V36.2771ZM9.7716 13.8866C7.7686 13.8866 6.14551 12.2508 6.14551 10.2333C6.14551 8.21584 7.7686 6.58002 9.7716 6.58002C11.7746 6.58002 13.3967 8.21584 13.3967 10.2333C13.3967 12.2508 11.7746 13.8866 9.7716 13.8866ZM6.7352 36.2771H12.867V16.479H6.7352V36.2771Z" fill="white" />
	</g>
	<defs>
		<clipPath id="clip0_153_68">
			<rect width="41.119" height="41.119" fill="white" transform="translate(0.43457 0.869049)" />
		</clipPath>
	</defs>
</svg>
