<svg width="107" height="20" viewBox="0 0 107 20" fill="none" xmlns="http://www.w3.org/2000/svg">
	<g clip-path="url(#clip0_22_77)">
		<path d="M71.1302 0.00826645H89.7678V3.175H82.3745V19.8347H78.6775V3.175H71.1302V0.00826645Z" fill="white" fill-opacity="0.85" />
		<path d="M40.4785 0.00826645V3.175H25.5393V8.2693H37.5534V11.436H25.5393V16.668H40.4785V19.8347H21.8426V3.175H21.8411V0.00826645H40.4785Z" fill="white" fill-opacity="0.85" />
		<path d="M49.7848 0.0165367H44.947L62.275 19.843H67.127L58.4619 9.9366L67.1131 0.0316631L62.275 0.0385456L56.0397 7.16742L49.7848 0.0165367Z" fill="white" fill-opacity="0.85" />
		<path d="M54.7493 14.1787L52.3265 11.4057L44.9332 19.8581H49.7849L54.7493 14.1787Z" fill="white" fill-opacity="0.85" />
		<path fill-rule="evenodd" clip-rule="evenodd" d="M21.9722 19.8347L4.62085 0H0V19.8265H3.69669V4.2379L17.3282 19.8347H21.9722Z" fill="white" fill-opacity="0.85" />
		<path d="M90.5989 19.7136C90.3281 19.7136 90.0978 19.6273 89.905 19.4547C89.7122 19.282 89.6169 19.0729 89.6193 18.8253C89.6169 18.5844 89.7122 18.3777 89.905 18.205C90.0978 18.0323 90.3281 17.9459 90.5989 17.9459C90.8593 17.9459 91.0872 18.0323 91.28 18.205C91.4755 18.3777 91.573 18.5844 91.5757 18.8253C91.573 18.9889 91.5279 19.1388 91.4378 19.2729C91.3452 19.4092 91.2276 19.516 91.0796 19.5933C90.9343 19.6728 90.774 19.7136 90.5989 19.7136Z" fill="white" fill-opacity="0.85" />
		<path d="M96.9083 11.3613H98.5464V17.1711C98.544 17.7051 98.4185 18.1618 98.1733 18.5458C97.9254 18.9298 97.5821 19.2228 97.1413 19.4296C96.703 19.6341 96.1895 19.7386 95.6058 19.7386C95.0722 19.7386 94.594 19.65 94.1681 19.4773C93.7423 19.3047 93.4042 19.0456 93.1563 18.7048C92.9056 18.364 92.7828 17.9391 92.7828 17.4302H94.4237C94.4261 17.6528 94.4813 17.8459 94.5864 18.0073C94.6915 18.1686 94.8367 18.2913 95.0222 18.3776C95.2099 18.464 95.4255 18.5071 95.6683 18.5071C95.9315 18.5071 96.1569 18.4571 96.3396 18.3549C96.5224 18.2549 96.6628 18.105 96.7606 17.905C96.8556 17.7074 96.9059 17.462 96.9083 17.1711V11.3613Z" fill="white" fill-opacity="0.85" />
		<path d="M105.287 13.6334C105.247 13.2813 105.071 13.0064 104.766 12.811C104.458 12.6133 104.059 12.5156 103.571 12.5156C103.228 12.5156 102.932 12.5633 102.687 12.6565C102.441 12.7519 102.251 12.8791 102.121 13.0404C101.991 13.2018 101.925 13.3858 101.92 13.5926C101.92 13.7653 101.965 13.9152 102.053 14.0402C102.141 14.1674 102.258 14.2742 102.411 14.3605C102.561 14.4491 102.729 14.5218 102.912 14.5809C103.097 14.64 103.283 14.69 103.468 14.7309L104.322 14.924C104.666 14.9967 104.999 15.0945 105.317 15.2194C105.635 15.3421 105.923 15.4989 106.176 15.6875C106.429 15.8761 106.629 16.1033 106.777 16.3691C106.925 16.6349 107 16.9462 107 17.3052C107 17.7892 106.865 18.214 106.592 18.5821C106.319 18.9479 105.925 19.2342 105.409 19.441C104.896 19.6455 104.275 19.75 103.543 19.75C102.837 19.75 102.221 19.65 101.702 19.4501C101.182 19.2524 100.776 18.9616 100.483 18.5798C100.189 18.1981 100.032 17.7323 100.009 17.1848H101.632C101.655 17.471 101.755 17.7096 101.925 17.9028C102.098 18.0936 102.324 18.2345 102.599 18.3299C102.877 18.4231 103.188 18.4708 103.531 18.4708C103.889 18.4708 104.205 18.4208 104.478 18.3231C104.748 18.2254 104.961 18.0891 105.114 17.9119C105.269 17.7369 105.347 17.5301 105.349 17.2938C105.347 17.078 105.277 16.8985 105.141 16.7576C105.004 16.6168 104.813 16.4986 104.57 16.4032C104.325 16.3078 104.039 16.2214 103.714 16.1464L102.677 15.9056C101.928 15.7306 101.334 15.4648 100.901 15.1081C100.465 14.7514 100.25 14.2788 100.25 13.6857C100.25 13.1995 100.395 12.7723 100.688 12.4065C100.978 12.0407 101.377 11.7567 101.88 11.5545C102.386 11.35 102.957 11.25 103.593 11.25C104.24 11.25 104.806 11.35 105.294 11.5545C105.783 11.7567 106.166 12.0384 106.444 12.3974C106.722 12.7564 106.867 13.1677 106.875 13.6334H105.287Z" fill="white" fill-opacity="0.85" />
	</g>
	<defs>
		<clipPath id="clip0_22_77">
			<rect width="107" height="20" fill="white" />
		</clipPath>
	</defs>
</svg>
