<svg width="145" height="30" viewBox="0 0 145 30" fill="none" xmlns="http://www.w3.org/2000/svg">
<g clip-path="url(#clip0_714_18)">
<path d="M109.13 3.00827H127.768V6.175H120.374V22.8347H116.678V6.175H109.13V3.00827Z" fill="white" fill-opacity="0.85"/>
<path d="M78.4785 3.00827V6.175H63.5393V11.2693H75.5534V14.436H63.5393V19.668H78.4785V22.8347H59.8426V6.175H59.8411V3.00827H78.4785Z" fill="white" fill-opacity="0.85"/>
<path d="M87.7848 3.01654H82.947L100.275 22.843H105.127L96.4619 12.9366L105.113 3.03166L100.275 3.03855L94.0397 10.1674L87.7848 3.01654Z" fill="white" fill-opacity="0.85"/>
<path d="M92.7493 17.1787L90.3265 14.4057L82.9332 22.8581H87.7849L92.7493 17.1787Z" fill="white" fill-opacity="0.85"/>
<path fill-rule="evenodd" clip-rule="evenodd" d="M59.9722 22.8347L42.6209 3H38V22.8265H41.6967V7.2379L55.3282 22.8347H59.9722Z" fill="white" fill-opacity="0.85"/>
<path d="M128.599 22.7136C128.328 22.7136 128.098 22.6273 127.905 22.4547C127.712 22.282 127.617 22.0729 127.619 21.8253C127.617 21.5844 127.712 21.3777 127.905 21.205C128.098 21.0323 128.328 20.9459 128.599 20.9459C128.859 20.9459 129.087 21.0323 129.28 21.205C129.476 21.3777 129.573 21.5844 129.576 21.8253C129.573 21.9889 129.528 22.1388 129.438 22.2729C129.345 22.4092 129.228 22.516 129.08 22.5933C128.934 22.6728 128.774 22.7136 128.599 22.7136Z" fill="white" fill-opacity="0.85"/>
<path d="M134.908 14.3613H136.546V20.1711C136.544 20.7051 136.419 21.1618 136.173 21.5458C135.925 21.9298 135.582 22.2228 135.141 22.4296C134.703 22.6341 134.189 22.7386 133.606 22.7386C133.072 22.7386 132.594 22.65 132.168 22.4773C131.742 22.3047 131.404 22.0456 131.156 21.7048C130.906 21.364 130.783 20.9391 130.783 20.4302H132.424C132.426 20.6528 132.481 20.8459 132.586 21.0073C132.691 21.1686 132.837 21.2913 133.022 21.3776C133.21 21.464 133.426 21.5071 133.668 21.5071C133.931 21.5071 134.157 21.4571 134.34 21.3549C134.522 21.2549 134.663 21.105 134.761 20.905C134.856 20.7074 134.906 20.462 134.908 20.1711V14.3613Z" fill="white" fill-opacity="0.85"/>
<path d="M143.287 16.6334C143.247 16.2813 143.071 16.0064 142.766 15.811C142.458 15.6133 142.059 15.5156 141.571 15.5156C141.228 15.5156 140.932 15.5633 140.687 15.6565C140.441 15.7519 140.251 15.8791 140.121 16.0404C139.991 16.2018 139.925 16.3858 139.92 16.5926C139.92 16.7652 139.965 16.9152 140.053 17.0402C140.141 17.1674 140.258 17.2742 140.411 17.3605C140.561 17.4491 140.729 17.5218 140.912 17.5809C141.097 17.64 141.283 17.69 141.468 17.7309L142.322 17.924C142.666 17.9967 142.999 18.0945 143.317 18.2194C143.635 18.3421 143.923 18.4989 144.176 18.6875C144.429 18.8761 144.629 19.1033 144.777 19.3691C144.925 19.6349 145 19.9462 145 20.3052C145 20.7892 144.865 21.214 144.592 21.5821C144.319 21.9479 143.925 22.2342 143.409 22.441C142.896 22.6455 142.275 22.75 141.543 22.75C140.837 22.75 140.221 22.6501 139.702 22.4501C139.182 22.2524 138.776 21.9616 138.483 21.5798C138.189 21.1981 138.032 20.7323 138.009 20.1848H139.632C139.655 20.471 139.755 20.7097 139.925 20.9028C140.098 21.0936 140.324 21.2345 140.599 21.3299C140.877 21.4231 141.188 21.4708 141.531 21.4708C141.889 21.4708 142.205 21.4208 142.478 21.3231C142.748 21.2254 142.961 21.0891 143.114 20.9119C143.269 20.7369 143.347 20.5301 143.349 20.2938C143.347 20.078 143.277 19.8985 143.141 19.7576C143.004 19.6168 142.813 19.4986 142.57 19.4032C142.325 19.3078 142.039 19.2214 141.714 19.1464L140.677 18.9056C139.928 18.7306 139.334 18.4648 138.901 18.1081C138.465 17.7514 138.25 17.2788 138.25 16.6857C138.25 16.1995 138.395 15.7723 138.688 15.4065C138.978 15.0407 139.377 14.7567 139.88 14.5545C140.386 14.35 140.957 14.25 141.593 14.25C142.24 14.25 142.806 14.35 143.294 14.5545C143.783 14.7567 144.166 15.0384 144.444 15.3974C144.722 15.7564 144.867 16.1677 144.875 16.6334H143.287Z" fill="white" fill-opacity="0.85"/>
</g>
<path d="M14.134 1.5C14.5189 0.833332 15.4811 0.833333 15.866 1.5L27.1244 21C27.5093 21.6667 27.0281 22.5 26.2583 22.5H3.74167C2.97187 22.5 2.49074 21.6667 2.87564 21L14.134 1.5Z" fill="#D9D9D9"/>
<defs>
<clipPath id="clip0_714_18">
<rect width="107" height="20" fill="white" transform="translate(38 3)"/>
</clipPath>
</defs>
</svg>
