<svg width="34" height="34" viewBox="0 0 34 34" fill="none" xmlns="http://www.w3.org/2000/svg">
<g clip-path="url(#clip0_716_112)">
<path d="M33.1889 16.1675C33.5612 16.9894 33.7974 17.8679 33.8941 18.7641C33.9872 19.6603 33.9406 20.5672 33.7473 21.4493C33.5576 22.3313 33.2283 23.178 32.7701 23.9573C32.4694 24.478 32.115 24.9669 31.7069 25.4168C31.3024 25.8631 30.8514 26.2669 30.361 26.6212C29.867 26.9754 29.3408 27.273 28.7824 27.5174C28.2275 27.7583 27.6476 27.9425 27.0534 28.0629C26.7742 28.9202 26.359 29.7314 25.822 30.4611C25.2887 31.1909 24.6407 31.8321 23.9033 32.3599C23.1659 32.8912 22.3498 33.3021 21.4835 33.5785C20.6172 33.8583 19.7116 33.9965 18.7988 33.9965C18.1938 34 17.5853 33.9362 16.9911 33.8158C16.4004 33.6918 15.8205 33.5041 15.2657 33.2596C14.7108 33.0152 14.1846 32.7106 13.6942 32.3563C13.2074 32.0021 12.7564 31.5947 12.3554 31.1448C11.4605 31.3361 10.5441 31.3822 9.6385 31.2901C8.73285 31.1944 7.8451 30.9606 7.01105 30.5922C6.18057 30.2273 5.41095 29.7314 4.7344 29.1257C4.05785 28.5199 3.48153 27.8114 3.02692 27.0321C2.72265 26.5114 2.47208 25.9623 2.28235 25.392C2.09263 24.8216 1.96735 24.2336 1.90291 23.6349C1.83848 23.0398 1.84206 22.4376 1.90649 21.8389C1.97093 21.2438 2.10337 20.6558 2.29309 20.0854C1.68456 19.4159 1.18341 18.6543 0.811126 17.8325C0.442424 17.0071 0.202588 16.1321 0.109518 15.2359C0.0128678 14.3397 0.0629826 13.4328 0.252703 12.5507C0.442424 11.6687 0.77175 10.822 1.22994 10.0427C1.53063 9.52199 1.88502 9.02959 2.28951 8.58325C2.69401 8.1369 3.14863 7.73307 3.63904 7.37883C4.12945 7.02459 4.65923 6.72348 5.21407 6.4826C5.7725 6.23818 6.3524 6.05751 6.94662 5.93707C7.22583 5.07627 7.64106 4.2686 8.17443 3.53886C8.71137 2.80913 9.35929 2.16795 10.0967 1.63659C10.8341 1.10877 11.6503 0.697854 12.5165 0.418004C13.3828 0.141696 14.2884 2.75735e-07 15.2012 0.00354268C15.8062 2.75735e-07 16.4147 0.0602212 17.009 0.184205C17.6032 0.30819 18.1831 0.492395 18.7379 0.736821C19.2928 0.984789 19.819 1.28589 20.3094 1.64013C20.7998 1.99792 21.2508 2.40175 21.6517 2.85164C22.5431 2.66389 23.4595 2.61784 24.3651 2.70994C25.2708 2.80204 26.1549 3.03938 26.989 3.40425C27.8195 3.77266 28.5891 4.26506 29.2656 4.87081C29.9422 5.47302 30.5185 6.17795 30.9731 6.96083C31.2774 7.47802 31.528 8.02709 31.7177 8.60096C31.9074 9.17129 32.0363 9.75933 32.0971 10.358C32.1615 10.9567 32.1615 11.5589 32.0935 12.1575C32.0291 12.7562 31.8967 13.3442 31.7069 13.9146C32.3191 14.5841 32.8166 15.3422 33.1889 16.1675ZM21.2616 31.2901C22.0419 30.9712 22.7507 30.5001 23.3485 29.9085C23.9463 29.3169 24.4224 28.6155 24.7445 27.8398C25.0667 27.0675 25.235 26.2386 25.235 25.4026V17.503C25.2326 17.4959 25.2302 17.4877 25.2278 17.4782C25.2254 17.4711 25.2218 17.4641 25.2171 17.457C25.2123 17.4499 25.2063 17.444 25.1992 17.4393C25.192 17.4322 25.1848 17.4275 25.1777 17.4251L22.2889 15.7743V25.3176C22.2889 25.4132 22.2746 25.5124 22.2495 25.6045C22.2245 25.7001 22.1887 25.7887 22.1386 25.8737C22.0885 25.9587 22.0312 26.0367 21.9596 26.104C21.89 26.1726 21.8118 26.2321 21.7269 26.2811L14.8862 30.1884C14.829 30.2238 14.7323 30.2734 14.6822 30.3017C14.965 30.5391 15.2728 30.7481 15.595 30.9323C15.9208 31.1165 16.2572 31.2724 16.608 31.3999C16.9588 31.5239 17.3204 31.6195 17.6855 31.6833C18.0542 31.747 18.4265 31.7789 18.7988 31.7789C19.6436 31.7789 20.4812 31.6124 21.2616 31.2901ZM4.97066 25.9269C5.39664 26.6531 5.95864 27.2836 6.62803 27.7937C7.301 28.3038 8.06346 28.6758 8.87962 28.8919C9.69577 29.1079 10.5477 29.1646 11.3854 29.0548C12.223 28.945 13.0284 28.6758 13.7622 28.2578L20.6781 24.308L20.696 24.2903C20.7008 24.2855 20.7043 24.2785 20.7067 24.269C20.7115 24.2619 20.7151 24.2548 20.7175 24.2478V20.9179L12.3698 25.6966C12.2838 25.7462 12.1944 25.7816 12.1013 25.81C12.0046 25.8348 11.908 25.8454 11.8078 25.8454C11.7111 25.8454 11.6145 25.8348 11.5178 25.81C11.4247 25.7816 11.3317 25.7462 11.2458 25.6966L4.40508 21.7858C4.34422 21.7504 4.25473 21.6972 4.20462 21.6653C4.14018 22.0302 4.10797 22.3986 4.10797 22.767C4.10797 23.1354 4.14376 23.5039 4.2082 23.8687C4.27263 24.2301 4.37286 24.5878 4.49815 24.935C4.62701 25.2821 4.78452 25.6151 4.97066 25.9339V25.9269ZM3.17368 11.155C2.75129 11.8812 2.47923 12.6818 2.36827 13.5107C2.2573 14.3397 2.31457 15.1792 2.53293 15.9904C2.75129 16.7981 3.12715 17.5526 3.64262 18.2186C4.15808 18.881 4.79884 19.4372 5.52908 19.8552L12.4414 23.8085C12.4485 23.8109 12.4569 23.8132 12.4664 23.8156H12.4915C12.501 23.8156 12.5094 23.8132 12.5165 23.8085C12.5237 23.8061 12.5308 23.8026 12.538 23.7979L15.4375 22.14L7.0898 17.372C7.00747 17.3224 6.92872 17.2621 6.85713 17.1948C6.78776 17.126 6.72761 17.0486 6.67814 16.9646C6.63161 16.8796 6.59223 16.791 6.56718 16.6954C6.54212 16.6033 6.5278 16.5076 6.53138 16.4084V8.36362C6.18057 8.49115 5.84051 8.64701 5.51834 8.83122C5.19618 9.01896 4.89191 9.23151 4.60554 9.46885C4.32275 9.70619 4.05785 9.96833 3.81802 10.2517C3.57818 10.5316 3.36698 10.8362 3.18084 11.155H3.17368ZM26.9174 16.6245C27.0033 16.6741 27.082 16.7308 27.1536 16.8016C27.2217 16.8689 27.2825 16.9469 27.3326 17.0319C27.3792 17.1169 27.4185 17.209 27.4436 17.3011C27.4651 17.3968 27.4794 17.4924 27.4758 17.5916V25.6364C28.6249 25.2184 29.6272 24.4851 30.3682 23.5216C31.1127 22.558 31.5602 21.4068 31.664 20.2023C31.7678 18.9979 31.5244 17.7864 30.9588 16.7131C30.3932 15.6397 29.5305 14.747 28.4709 14.1448L21.5587 10.1915C21.5515 10.1891 21.5432 10.1868 21.5336 10.1844H21.5086C21.5014 10.1868 21.493 10.1891 21.4835 10.1915C21.4763 10.1939 21.4692 10.1974 21.462 10.2021L18.5768 11.8529L26.9245 16.6245H26.9174ZM29.799 12.3382H29.7954V12.3417L29.799 12.3382ZM29.7954 12.3347C30.003 11.1444 29.8634 9.91873 29.3909 8.80288C28.922 7.68702 28.138 6.72703 27.1357 6.03272C26.1334 5.34195 24.9522 4.9452 23.7315 4.89206C22.5073 4.84247 21.2974 5.13649 20.2378 5.7387L13.3255 9.68848C13.3184 9.6932 13.3124 9.69911 13.3076 9.70619L13.2933 9.72744C13.2909 9.73453 13.2885 9.7428 13.2861 9.75224C13.2838 9.75933 13.2826 9.76759 13.2826 9.77704V13.0786L21.6303 8.30694C21.7162 8.25735 21.8092 8.22192 21.9023 8.19358C21.999 8.16879 22.0956 8.15816 22.1923 8.15816C22.2925 8.15816 22.3891 8.16879 22.4858 8.19358C22.5789 8.22192 22.6684 8.25735 22.7543 8.30694L29.595 12.2178C29.6558 12.2532 29.7453 12.3028 29.7954 12.3347ZM11.7075 8.67889C11.7075 8.58325 11.7218 8.4876 11.7469 8.39196C11.772 8.29986 11.8078 8.20775 11.8579 8.12273C11.908 8.04126 11.9653 7.96333 12.0369 7.89248C12.1049 7.82517 12.1836 7.76495 12.2695 7.7189L19.1102 3.81163C19.1746 3.77266 19.2641 3.72307 19.3142 3.69827C18.3764 2.92248 17.2309 2.42655 16.0174 2.27422C14.8039 2.11836 13.5725 2.30965 12.4664 2.8233C11.3567 3.33695 10.4189 4.15524 9.76379 5.17545C9.10871 6.19921 8.76149 7.38237 8.76149 8.59387V16.4934C8.76388 16.5029 8.76626 16.5112 8.76865 16.5182C8.77104 16.5253 8.77461 16.5324 8.77939 16.5395C8.78416 16.5466 8.79013 16.5537 8.79729 16.5607C8.80206 16.5655 8.80922 16.5702 8.81876 16.5749L11.7075 18.2257V8.67889ZM13.2754 19.1184L16.9946 21.2438L20.7139 19.1184V14.871L16.9982 12.7456L13.279 14.871L13.2754 19.1184Z" fill="#D6D6D6"/>
</g>
<defs>
<clipPath id="clip0_716_112">
<rect width="34" height="34" fill="white"/>
</clipPath>
</defs>
</svg>
