<svg width="31" height="34" viewBox="0 0 31 34" fill="none" xmlns="http://www.w3.org/2000/svg">
	<path d="M13.8683 0.000232091C12.7109 0.00560925 11.6055 0.104306 10.6329 0.276374C7.76767 0.782456 7.24747 1.84173 7.24747 3.79521V6.37516H14.0183V7.23515H7.24747H4.70644C2.73865 7.23515 1.0156 8.41766 0.476649 10.6672C-0.145021 13.2457 -0.172595 14.8547 0.476649 17.5471C0.957943 19.5512 2.10734 20.9791 4.07512 20.9791H6.40309V17.8863C6.40309 15.652 8.3367 13.6811 10.6329 13.6811H17.3958C19.2784 13.6811 20.7812 12.1314 20.7812 10.2411V3.79521C20.7812 1.96066 19.2332 0.582553 17.3958 0.276374C16.2327 0.0827969 15.0258 -0.00514515 13.8683 0.000232091ZM10.2067 2.07524C10.9061 2.07524 11.4773 2.65559 11.4773 3.36916C11.4773 4.08021 10.9061 4.65519 10.2067 4.65519C9.50485 4.65519 8.93622 4.08021 8.93622 3.36916C8.93622 2.65559 9.50485 2.07524 10.2067 2.07524Z" fill="url(#paint0_linear_167_184)" />
	<path d="M21.6257 7.23515V10.2412C21.6257 12.5717 19.6494 14.5332 17.3959 14.5332H10.633C8.78049 14.5332 7.24756 16.1183 7.24756 17.9731V24.4191C7.24756 26.2536 8.84316 27.3327 10.633 27.859C12.7762 28.4891 14.8315 28.6029 17.3959 27.859C19.1005 27.3656 20.7813 26.3725 20.7813 24.4191V21.8391H14.0184V20.9791H20.7813H24.1667C26.1345 20.9791 26.8678 19.6068 27.5521 17.5471C28.259 15.4266 28.2289 13.3874 27.5521 10.6672C27.0658 8.70866 26.137 7.23515 24.1667 7.23515H21.6257ZM17.822 23.5591C18.5239 23.5591 19.0925 24.1341 19.0925 24.8451C19.0925 25.5587 18.5239 26.139 17.822 26.139C17.1226 26.139 16.5515 25.5587 16.5515 24.8451C16.5515 24.1341 17.1226 23.5591 17.822 23.5591Z" fill="url(#paint1_linear_167_184)" />
	<path opacity="0.44382" d="M14.0949 34C19.1061 34 23.1684 33.2124 23.1684 32.2409C23.1684 31.2694 19.1061 30.4819 14.0949 30.4819C9.08381 30.4819 5.02148 31.2694 5.02148 32.2409C5.02148 33.2124 9.08381 34 14.0949 34Z" fill="url(#paint2_radial_167_184)" />
	<defs>
		<linearGradient id="paint0_linear_167_184" x1="-8.43141e-08" y1="-7.32262e-08" x2="15.6101" y2="13.3047" gradientUnits="userSpaceOnUse">
			<stop stop-color="#5A9FD4" />
			<stop offset="1" stop-color="#306998" />
		</linearGradient>
		<linearGradient id="paint1_linear_167_184" x1="17.6593" y1="24.6282" x2="12.0596" y2="16.7797" gradientUnits="userSpaceOnUse">
			<stop stop-color="#FFD43B" />
			<stop offset="1" stop-color="#FFE873" />
		</linearGradient>
		<radialGradient id="paint2_radial_167_184" cx="0" cy="0" r="1" gradientUnits="userSpaceOnUse" gradientTransform="translate(14.0949 32.2409) rotate(-90) scale(1.75906 7.73339)">
			<stop stop-color="#B8B8B8" stop-opacity="0.498039" />
			<stop offset="1" stop-color="#7F7F7F" stop-opacity="0" />
		</radialGradient>
	</defs>
</svg>
