<svg width="125" height="34" viewBox="0 0 125 34" fill="none" xmlns="http://www.w3.org/2000/svg">
<path d="M46.6499 25V8.27273H52.9226C54.2076 8.27273 55.2857 8.51231 56.157 8.99148C57.0336 9.47064 57.6952 10.1295 58.1417 10.968C58.5936 11.8011 58.8196 12.7486 58.8196 13.8104C58.8196 14.883 58.5936 15.8359 58.1417 16.669C57.6897 17.5021 57.0227 18.1583 56.1406 18.6374C55.2585 19.1112 54.1722 19.348 52.8817 19.348H48.7244V16.8569H52.4734C53.2248 16.8569 53.8401 16.7262 54.3192 16.4648C54.7984 16.2035 55.1523 15.8441 55.381 15.3867C55.6152 14.9293 55.7322 14.4039 55.7322 13.8104C55.7322 13.2169 55.6152 12.6941 55.381 12.2422C55.1523 11.7902 54.7957 11.439 54.3111 11.1886C53.8319 10.9326 53.2139 10.8047 52.457 10.8047H49.68V25H46.6499ZM63.1586 29.7045C62.7557 29.7045 62.3827 29.6719 62.0397 29.6065C61.7021 29.5466 61.4326 29.4759 61.2311 29.3942L61.9172 27.0909C62.3473 27.2161 62.7312 27.276 63.0688 27.2706C63.4064 27.2652 63.7032 27.159 63.9591 26.9521C64.2204 26.7506 64.441 26.413 64.6206 25.9393L64.8738 25.2614L60.3245 12.4545H63.4608L66.3522 21.929H66.4829L69.3824 12.4545H72.5269L67.5038 26.5192C67.2697 27.1835 66.9593 27.7525 66.5727 28.2262C66.1861 28.7054 65.7124 29.0702 65.1515 29.3207C64.5961 29.5766 63.9318 29.7045 63.1586 29.7045ZM80.8374 12.4545V14.7415H73.6254V12.4545H80.8374ZM75.406 9.44886H78.3627V21.2266C78.3627 21.6241 78.4226 21.929 78.5423 22.1413C78.6676 22.3482 78.8309 22.4898 79.0324 22.5661C79.2339 22.6423 79.4571 22.6804 79.7021 22.6804C79.8873 22.6804 80.0561 22.6668 80.2085 22.6396C80.3664 22.6123 80.4862 22.5878 80.5679 22.5661L81.0661 24.8775C80.9082 24.9319 80.6823 24.9918 80.3882 25.0572C80.0996 25.1225 79.7457 25.1606 79.3264 25.1715C78.5859 25.1933 77.9189 25.0817 77.3254 24.8366C76.7319 24.5862 76.2609 24.1996 75.9124 23.6768C75.5693 23.1541 75.4005 22.5007 75.406 21.7166V9.44886ZM86.5364 17.6491V25H83.5797V8.27273H86.4711V14.5863H86.6181C86.9121 13.8784 87.3668 13.3203 87.9821 12.9119C88.6028 12.4981 89.3923 12.2912 90.3507 12.2912C91.2219 12.2912 91.9815 12.4736 92.6294 12.8384C93.2774 13.2032 93.7784 13.7369 94.1323 14.4393C94.4917 15.1417 94.6713 15.9993 94.6713 17.0121V25H91.7147V17.4695C91.7147 16.6255 91.4969 15.9693 91.0613 15.5011C90.6311 15.0273 90.0267 14.7905 89.248 14.7905C88.7253 14.7905 88.257 14.9048 87.8432 15.1335C87.4348 15.3568 87.1136 15.6808 86.8794 16.1055C86.6507 16.5302 86.5364 17.0447 86.5364 17.6491ZM103.157 25.245C101.932 25.245 100.871 24.9755 99.9721 24.4364C99.0737 23.8974 98.3767 23.1432 97.8812 22.174C97.3912 21.2048 97.1461 20.0722 97.1461 18.7763C97.1461 17.4804 97.3912 16.3451 97.8812 15.3704C98.3767 14.3957 99.0737 13.6388 99.9721 13.0998C100.871 12.5607 101.932 12.2912 103.157 12.2912C104.383 12.2912 105.444 12.5607 106.343 13.0998C107.241 13.6388 107.936 14.3957 108.426 15.3704C108.921 16.3451 109.169 17.4804 109.169 18.7763C109.169 20.0722 108.921 21.2048 108.426 22.174C107.936 23.1432 107.241 23.8974 106.343 24.4364C105.444 24.9755 104.383 25.245 103.157 25.245ZM103.174 22.8764C103.838 22.8764 104.394 22.694 104.84 22.3292C105.287 21.9589 105.619 21.4634 105.836 20.8427C106.06 20.2219 106.171 19.5304 106.171 18.7681C106.171 18.0004 106.06 17.3061 105.836 16.6854C105.619 16.0592 105.287 15.561 104.84 15.1907C104.394 14.8204 103.838 14.6353 103.174 14.6353C102.493 14.6353 101.927 14.8204 101.475 15.1907C101.028 15.561 100.694 16.0592 100.47 16.6854C100.253 17.3061 100.144 18.0004 100.144 18.7681C100.144 19.5304 100.253 20.2219 100.47 20.8427C100.694 21.4634 101.028 21.9589 101.475 22.3292C101.927 22.694 102.493 22.8764 103.174 22.8764ZM114.635 17.6491V25H111.678V12.4545H114.504V14.5863H114.651C114.94 13.8839 115.4 13.3258 116.032 12.9119C116.669 12.4981 117.456 12.2912 118.392 12.2912C119.258 12.2912 120.012 12.4763 120.655 12.8466C121.303 13.2169 121.803 13.7532 122.157 14.4556C122.517 15.158 122.694 16.0102 122.688 17.0121V25H119.732V17.4695C119.732 16.6309 119.514 15.9748 119.078 15.5011C118.648 15.0273 118.052 14.7905 117.29 14.7905C116.772 14.7905 116.312 14.9048 115.909 15.1335C115.512 15.3568 115.199 15.6808 114.97 16.1055C114.747 16.5302 114.635 17.0447 114.635 17.6491Z" fill="white" fill-opacity="0.85"/>
<path d="M13.8683 0.000232091C12.7109 0.00560925 11.6055 0.104306 10.6329 0.276374C7.76767 0.782456 7.24747 1.84173 7.24747 3.79521V6.37516H14.0183V7.23515H7.24747H4.70644C2.73865 7.23515 1.0156 8.41766 0.476649 10.6672C-0.145021 13.2457 -0.172595 14.8547 0.476649 17.5471C0.957943 19.5512 2.10734 20.9791 4.07512 20.9791H6.40309V17.8863C6.40309 15.652 8.3367 13.6811 10.6329 13.6811H17.3958C19.2784 13.6811 20.7812 12.1314 20.7812 10.2411V3.79521C20.7812 1.96066 19.2332 0.582553 17.3958 0.276374C16.2327 0.0827969 15.0258 -0.00514515 13.8683 0.000232091ZM10.2067 2.07524C10.9061 2.07524 11.4773 2.65559 11.4773 3.36916C11.4773 4.08021 10.9061 4.65519 10.2067 4.65519C9.50485 4.65519 8.93622 4.08021 8.93622 3.36916C8.93622 2.65559 9.50485 2.07524 10.2067 2.07524Z" fill="url(#paint0_linear_38_416)"/>
<path d="M21.6256 7.23515V10.2412C21.6256 12.5717 19.6493 14.5332 17.3958 14.5332H10.6328C8.78037 14.5332 7.24744 16.1183 7.24744 17.9731V24.4191C7.24744 26.2536 8.84304 27.3327 10.6328 27.859C12.7761 28.4891 14.8314 28.6029 17.3958 27.859C19.1003 27.3656 20.7812 26.3725 20.7812 24.4191V21.8391H14.0183V20.9791H20.7812H24.1666C26.1344 20.9791 26.8677 19.6068 27.552 17.5471C28.2589 15.4266 28.2288 13.3874 27.552 10.6672C27.0657 8.70866 26.1369 7.23515 24.1666 7.23515H21.6256ZM17.8219 23.5591C18.5238 23.5591 19.0924 24.1341 19.0924 24.8451C19.0924 25.5587 18.5238 26.139 17.8219 26.139C17.1225 26.139 16.5514 25.5587 16.5514 24.8451C16.5514 24.1341 17.1225 23.5591 17.8219 23.5591Z" fill="url(#paint1_linear_38_416)"/>
<path opacity="0.44382" d="M14.0951 34C19.1062 34 23.1685 33.2124 23.1685 32.2409C23.1685 31.2694 19.1062 30.4819 14.0951 30.4819C9.08393 30.4819 5.02161 31.2694 5.02161 32.2409C5.02161 33.2124 9.08393 34 14.0951 34Z" fill="url(#paint2_radial_38_416)"/>
<defs>
<linearGradient id="paint0_linear_38_416" x1="-8.43141e-08" y1="-7.32262e-08" x2="15.6101" y2="13.3047" gradientUnits="userSpaceOnUse">
<stop stop-color="#5A9FD4"/>
<stop offset="1" stop-color="#306998"/>
</linearGradient>
<linearGradient id="paint1_linear_38_416" x1="17.6592" y1="24.6282" x2="12.0595" y2="16.7797" gradientUnits="userSpaceOnUse">
<stop stop-color="#FFD43B"/>
<stop offset="1" stop-color="#FFE873"/>
</linearGradient>
<radialGradient id="paint2_radial_38_416" cx="0" cy="0" r="1" gradientUnits="userSpaceOnUse" gradientTransform="translate(14.0951 32.2409) rotate(-90) scale(1.75906 7.73339)">
<stop stop-color="#B8B8B8" stop-opacity="0.498039"/>
<stop offset="1" stop-color="#7F7F7F" stop-opacity="0"/>
</radialGradient>
</defs>
</svg>
