<svg width="35" height="36" viewBox="0 0 35 36" fill="none" xmlns="http://www.w3.org/2000/svg">
<g clip-path="url(#clip0_716_82)">
<path d="M35 0H0V36H35V0Z" fill="url(#paint0_linear_716_82)"/>
<path d="M5.83325 11.4H7.58325C16.6039 11.4 23.9166 18.9216 23.9166 28.2V30H27.4166C28.3831 30 29.1666 29.1941 29.1666 28.2C29.1666 15.9393 19.5034 6 7.58325 6C6.61676 6 5.83325 6.80589 5.83325 7.8V11.4Z" fill="url(#paint1_radial_716_82)"/>
<path d="M24.5 28.2H29.1667C29.1667 29.1941 28.3832 30 27.4167 30H24.5V28.2Z" fill="url(#paint2_linear_716_82)"/>
<path d="M7.58325 6V10.8H5.83325V7.8C5.83325 6.80589 6.61676 6 7.58325 6Z" fill="url(#paint3_linear_716_82)"/>
<path d="M5.83325 10.8H7.58325C16.9261 10.8 24.4999 18.5902 24.4999 28.2V30H19.2499V28.2C19.2499 21.5726 14.0266 16.2 7.58325 16.2H5.83325V10.8Z" fill="url(#paint4_radial_716_82)"/>
<path d="M19.8333 28.2H24.4999V30H19.8333V28.2Z" fill="url(#paint5_linear_716_82)"/>
<path d="M5.83325 15.6V10.8H7.58325V15.6H5.83325Z" fill="url(#paint6_linear_716_82)"/>
<path d="M5.83325 18.6C5.83325 19.5941 6.61676 20.4 7.58325 20.4C11.7714 20.4 15.1666 23.8922 15.1666 28.2C15.1666 29.1941 15.9501 30 16.9166 30H19.8333V28.2C19.8333 21.2412 14.3488 15.6 7.58325 15.6H5.83325V18.6Z" fill="url(#paint7_radial_716_82)"/>
<path d="M15.1667 28.2H19.8334V30H16.9167C15.9503 30 15.1667 29.1941 15.1667 28.2Z" fill="url(#paint8_radial_716_82)"/>
<path d="M7.58325 20.4C6.61676 20.4 5.83325 19.5941 5.83325 18.6V15.6H7.58325V20.4Z" fill="url(#paint9_radial_716_82)"/>
</g>
<defs>
<linearGradient id="paint0_linear_716_82" x1="17.5" y1="0" x2="17.5" y2="36" gradientUnits="userSpaceOnUse">
<stop stop-color="#174299"/>
<stop offset="1" stop-color="#001E59"/>
</linearGradient>
<radialGradient id="paint1_radial_716_82" cx="0" cy="0" r="1" gradientUnits="userSpaceOnUse" gradientTransform="translate(7.58325 28.2) rotate(-90) scale(22.2 21.5833)">
<stop offset="0.770277" stop-color="#FF4000"/>
<stop offset="1" stop-color="#8754C9"/>
</radialGradient>
<linearGradient id="paint2_linear_716_82" x1="24.2083" y1="29.1" x2="29.1667" y2="29.1" gradientUnits="userSpaceOnUse">
<stop stop-color="#FF4000"/>
<stop offset="1" stop-color="#8754C9"/>
</linearGradient>
<linearGradient id="paint3_linear_716_82" x1="6.70825" y1="6" x2="6.70825" y2="11.1" gradientUnits="userSpaceOnUse">
<stop stop-color="#8754C9"/>
<stop offset="1" stop-color="#FF4000"/>
</linearGradient>
<radialGradient id="paint4_radial_716_82" cx="0" cy="0" r="1" gradientUnits="userSpaceOnUse" gradientTransform="translate(7.58325 28.2) rotate(-90) scale(17.4 16.9167)">
<stop offset="0.723929" stop-color="#FFF700"/>
<stop offset="1" stop-color="#FF9901"/>
</radialGradient>
<linearGradient id="paint5_linear_716_82" x1="19.8333" y1="29.1" x2="24.4999" y2="29.1" gradientUnits="userSpaceOnUse">
<stop stop-color="#FFF700"/>
<stop offset="1" stop-color="#FF9901"/>
</linearGradient>
<linearGradient id="paint6_linear_716_82" x1="6.70825" y1="15.6" x2="6.70825" y2="10.8" gradientUnits="userSpaceOnUse">
<stop stop-color="#FFF700"/>
<stop offset="1" stop-color="#FF9901"/>
</linearGradient>
<radialGradient id="paint7_radial_716_82" cx="0" cy="0" r="1" gradientUnits="userSpaceOnUse" gradientTransform="translate(7.58325 28.2) rotate(-90) scale(12.6 12.25)">
<stop offset="0.59513" stop-color="#00AAFF"/>
<stop offset="1" stop-color="#01DA40"/>
</radialGradient>
<radialGradient id="paint8_radial_716_82" cx="0" cy="0" r="1" gradientUnits="userSpaceOnUse" gradientTransform="translate(14.8751 29.1) scale(4.95833 13.6)">
<stop stop-color="#00AAFF"/>
<stop offset="1" stop-color="#01DA40"/>
</radialGradient>
<radialGradient id="paint9_radial_716_82" cx="0" cy="0" r="1" gradientUnits="userSpaceOnUse" gradientTransform="translate(6.70825 20.7) rotate(-90) scale(5.1 94.0246)">
<stop stop-color="#00AAFF"/>
<stop offset="1" stop-color="#01DA40"/>
</radialGradient>
<clipPath id="clip0_716_82">
<rect width="35" height="36" rx="10" fill="white"/>
</clipPath>
</defs>
</svg>
