<svg width="34" height="30" viewBox="0 0 34 30" fill="none" xmlns="http://www.w3.org/2000/svg">
<g clip-path="url(#clip0_167_159)">
<path d="M17.0002 18.0054C18.6738 18.0054 20.0306 16.6598 20.0306 15C20.0306 13.3402 18.6738 11.9946 17.0002 11.9946C15.3265 11.9946 13.9697 13.3402 13.9697 15C13.9697 16.6598 15.3265 18.0054 17.0002 18.0054Z" fill="#61DAFB"/>
<path d="M17.0001 21.1573C25.9808 21.1573 33.261 18.4006 33.261 15C33.261 11.5994 25.9808 8.84268 17.0001 8.84268C8.0195 8.84268 0.739258 11.5994 0.739258 15C0.739258 18.4006 8.0195 21.1573 17.0001 21.1573Z" stroke="#61DAFB"/>
<path d="M11.6232 18.0787C16.1136 25.7917 22.161 30.6661 25.1306 28.9658C28.1001 27.2655 26.8673 19.6344 22.377 11.9213C17.8867 4.20826 11.8393 -0.666073 8.86969 1.03422C5.90012 2.73452 7.13293 10.3656 11.6232 18.0787Z" stroke="#61DAFB"/>
<path d="M11.6231 11.9213C7.1328 19.6344 5.89999 27.2655 8.86957 28.9658C11.8391 30.6661 17.8866 25.7917 22.3769 18.0787C26.8672 10.3656 28.1 2.73452 25.1304 1.03423C22.1609 -0.666066 16.1134 4.20826 11.6231 11.9213Z" stroke="#61DAFB"/>
</g>
<defs>
<clipPath id="clip0_167_159">
<rect width="34" height="30" fill="white"/>
</clipPath>
</defs>
</svg>
