<svg width="106" height="30" viewBox="0 0 106 30" fill="none" xmlns="http://www.w3.org/2000/svg">
<path d="M43.6499 24V7.27273H49.9226C51.2076 7.27273 52.2857 7.49597 53.157 7.94247C54.0336 8.38897 54.6952 9.01515 55.1417 9.82102C55.5936 10.6214 55.8196 11.5553 55.8196 12.6225C55.8196 13.6952 55.5909 14.6263 55.1335 15.4158C54.6816 16.1999 54.0146 16.8071 53.1325 17.2372C52.2504 17.6619 51.1668 17.8743 49.8817 17.8743H45.4141V15.3587H49.4734C50.2248 15.3587 50.8401 15.2552 51.3192 15.0483C51.7984 14.8359 52.1523 14.5283 52.381 14.1254C52.6152 13.717 52.7322 13.216 52.7322 12.6225C52.7322 12.029 52.6152 11.5226 52.381 11.1033C52.1469 10.6786 51.7902 10.3574 51.3111 10.1396C50.8319 9.91631 50.2139 9.80469 49.457 9.80469H46.68V24H43.6499ZM52.2912 16.4205L56.4322 24H53.0508L48.9833 16.4205H52.2912ZM63.8525 24.245C62.5946 24.245 61.5083 23.9837 60.5936 23.4609C59.6842 22.9328 58.9846 22.1868 58.4945 21.223C58.0044 20.2538 57.7594 19.113 57.7594 17.8008C57.7594 16.5103 58.0044 15.3777 58.4945 14.4031C58.99 13.4229 59.6815 12.6606 60.5691 12.1161C61.4566 11.5662 62.4993 11.2912 63.6973 11.2912C64.4705 11.2912 65.2001 11.4164 65.8862 11.6669C66.5777 11.9119 67.1876 12.2931 67.7157 12.8104C68.2493 13.3277 68.6686 13.9865 68.9735 14.7869C69.2785 15.5819 69.4309 16.5294 69.4309 17.6293V18.5359H59.1479V16.543H66.5968C66.5913 15.9767 66.4688 15.473 66.2292 15.032C65.9896 14.5855 65.6548 14.2343 65.2246 13.9783C64.7999 13.7224 64.3044 13.5945 63.7381 13.5945C63.1337 13.5945 62.6028 13.7415 62.1454 14.0355C61.688 14.3241 61.3314 14.7053 61.0755 15.179C60.825 15.6473 60.697 16.1618 60.6916 16.7227V18.4624C60.6916 19.192 60.825 19.8182 61.0918 20.3409C61.3586 20.8582 61.7316 21.2557 62.2108 21.5334C62.6899 21.8056 63.2508 21.9418 63.8933 21.9418C64.3234 21.9418 64.7128 21.8819 65.0613 21.7621C65.4097 21.6368 65.7119 21.4544 65.9679 21.2148C66.2238 20.9753 66.4171 20.6785 66.5478 20.3246L69.3084 20.6349C69.1342 21.3646 68.802 22.0017 68.312 22.5462C67.8274 23.0852 67.2066 23.5045 66.4498 23.804C65.6929 24.098 64.8271 24.245 63.8525 24.245ZM75.5423 24.2532C74.7474 24.2532 74.0313 24.1116 73.3943 23.8285C72.7626 23.5399 72.2617 23.1152 71.8914 22.5543C71.5266 21.9935 71.3442 21.302 71.3442 20.4798C71.3442 19.7719 71.4749 19.1866 71.7362 18.7237C71.9976 18.2609 72.3543 17.8906 72.8062 17.6129C73.2581 17.3352 73.7673 17.1256 74.3335 16.984C74.9053 16.837 75.4961 16.7308 76.1059 16.6655C76.841 16.5893 77.4372 16.5212 77.8946 16.4613C78.352 16.396 78.6842 16.2979 78.8911 16.1673C79.1034 16.0311 79.2096 15.8215 79.2096 15.5384V15.4893C79.2096 14.8741 79.0272 14.3976 78.6624 14.06C78.2976 13.7224 77.7721 13.5536 77.086 13.5536C76.3618 13.5536 75.7874 13.7115 75.3627 14.0273C74.9434 14.3432 74.6602 14.7161 74.5132 15.1463L71.7526 14.7543C71.9704 13.992 72.3298 13.3549 72.8307 12.843C73.3316 12.3258 73.9442 11.9392 74.6684 11.6832C75.3926 11.4219 76.193 11.2912 77.0697 11.2912C77.6741 11.2912 78.2758 11.362 78.8747 11.5036C79.4737 11.6451 80.0209 11.8793 80.5164 12.206C81.0119 12.5272 81.4094 12.9656 81.7089 13.521C82.0138 14.0763 82.1663 14.7706 82.1663 15.6037V24H79.324V22.2766H79.2259C79.0463 22.6251 78.7931 22.9518 78.4664 23.2567C78.1451 23.5562 77.7394 23.7985 77.2494 23.9837C76.7648 24.1634 76.1958 24.2532 75.5423 24.2532ZM76.3101 22.0806C76.9036 22.0806 77.4182 21.9635 77.8538 21.7294C78.2894 21.4898 78.6243 21.174 78.8584 20.782C79.098 20.3899 79.2178 19.9625 79.2178 19.4996V18.0213C79.1252 18.0975 78.9673 18.1683 78.7441 18.2337C78.5262 18.299 78.2812 18.3562 78.009 18.4052C77.7367 18.4542 77.4672 18.4978 77.2004 18.5359C76.9336 18.574 76.7021 18.6067 76.5061 18.6339C76.0651 18.6938 75.6703 18.7918 75.3218 18.9279C74.9733 19.064 74.6984 19.2546 74.4969 19.4996C74.2954 19.7392 74.1947 20.0496 74.1947 20.4308C74.1947 20.9753 74.3934 21.3864 74.7909 21.6641C75.1884 21.9418 75.6948 22.0806 76.3101 22.0806ZM90.6116 24.245C89.3592 24.245 88.2838 23.9701 87.3854 23.4201C86.4924 22.8701 85.8036 22.1106 85.319 21.1413C84.8398 20.1667 84.6002 19.045 84.6002 17.7763C84.6002 16.5021 84.8453 15.3777 85.3353 14.4031C85.8254 13.4229 86.5169 12.6606 87.4099 12.1161C88.3083 11.5662 89.3701 11.2912 90.5953 11.2912C91.6135 11.2912 92.5146 11.479 93.2987 11.8548C94.0883 12.225 94.7172 12.7505 95.1855 13.4311C95.6537 14.1063 95.9205 14.8958 95.9859 15.7997H93.1599C93.0455 15.1953 92.7733 14.6916 92.3431 14.2887C91.9184 13.8803 91.3494 13.6761 90.6361 13.6761C90.0317 13.6761 89.5008 13.8395 89.0434 14.1662C88.586 14.4875 88.2294 14.9503 87.9735 15.5547C87.723 16.1591 87.5977 16.8833 87.5977 17.7273C87.5977 18.5821 87.723 19.3172 87.9735 19.9325C88.2239 20.5424 88.5751 21.0134 89.0271 21.3455C89.4845 21.6722 90.0208 21.8356 90.6361 21.8356C91.0717 21.8356 91.461 21.7539 91.8041 21.5906C92.1526 21.4218 92.4439 21.1795 92.678 20.8636C92.9121 20.5478 93.0728 20.1639 93.1599 19.712H95.9859C95.9151 20.5996 95.6537 21.3864 95.2018 22.0724C94.7499 22.7531 94.1346 23.2867 93.3559 23.6733C92.5773 24.0545 91.6625 24.245 90.6116 24.245ZM104.678 11.4545V13.7415H97.4663V11.4545H104.678ZM99.2468 8.44886H102.203V20.2266C102.203 20.6241 102.263 20.929 102.383 21.1413C102.508 21.3482 102.672 21.4898 102.873 21.5661C103.075 21.6423 103.298 21.6804 103.543 21.6804C103.728 21.6804 103.897 21.6668 104.049 21.6396C104.207 21.6123 104.327 21.5878 104.409 21.5661L104.907 23.8775C104.749 23.9319 104.523 23.9918 104.229 24.0572C103.94 24.1225 103.587 24.1606 103.167 24.1715C102.427 24.1933 101.76 24.0817 101.166 23.8366C100.573 23.5862 100.102 23.1996 99.7532 22.6768C99.4102 22.1541 99.2414 21.5007 99.2468 20.7166V8.44886Z" fill="white" fill-opacity="0.85"/>
<g clip-path="url(#clip0_22_72)">
<path d="M17 18.0054C18.6736 18.0054 20.0304 16.6598 20.0304 15C20.0304 13.3402 18.6736 11.9946 17 11.9946C15.3263 11.9946 13.9695 13.3402 13.9695 15C13.9695 16.6598 15.3263 18.0054 17 18.0054Z" fill="#61DAFB"/>
<path d="M17 21.1573C25.9806 21.1573 33.2609 18.4006 33.2609 15C33.2609 11.5994 25.9806 8.84269 17 8.84269C8.01937 8.84269 0.739136 11.5994 0.739136 15C0.739136 18.4006 8.01937 21.1573 17 21.1573Z" stroke="#61DAFB"/>
<path d="M11.6231 18.0787C16.1134 25.7917 22.1609 30.6661 25.1304 28.9658C28.1 27.2655 26.8672 19.6344 22.3769 11.9213C17.8866 4.20826 11.8391 -0.666069 8.86957 1.03423C5.9 2.73452 7.1328 10.3656 11.6231 18.0787Z" stroke="#61DAFB"/>
<path d="M11.6231 11.9213C7.1328 19.6344 5.89999 27.2655 8.86957 28.9658C11.8391 30.6661 17.8866 25.7917 22.3769 18.0787C26.8672 10.3656 28.1 2.73452 25.1304 1.03423C22.1609 -0.666069 16.1134 4.20826 11.6231 11.9213Z" stroke="#61DAFB"/>
</g>
<defs>
<clipPath id="clip0_22_72">
<rect width="34" height="30" fill="white"/>
</clipPath>
</defs>
</svg>
