<svg width="24" height="24" viewBox="0 0 24 24" fill="none" xmlns="http://www.w3.org/2000/svg">
<g clip-path="url(#clip0_455_774)">
<path fill-rule="evenodd" clip-rule="evenodd" d="M12.004 0.997987C5.94003 0.997987 0.996094 5.93492 0.996094 11.9978C0.996094 18.0608 5.94103 23.0037 12.004 23.0037C18.0669 23.0037 23.0018 18.0608 23.0018 11.9978C23.0018 5.93492 18.0669 0.997987 12.004 0.997987ZM12.004 2.99796C13.1863 2.99599 14.3574 3.22744 15.4501 3.67905C16.5428 4.13066 17.5356 4.79354 18.3715 5.62968C19.2075 6.46582 19.8702 7.45876 20.3215 8.55156C20.7729 9.64435 21.0041 10.8155 21.0018 11.9978C21.0042 13.1805 20.7731 14.352 20.3219 15.4452C19.8707 16.5384 19.2081 17.5318 18.3722 18.3684C17.5363 19.2051 16.5435 19.8685 15.4507 20.3207C14.3579 20.773 13.1866 21.0051 12.004 21.0037C10.8208 21.0052 9.64895 20.7732 8.55554 20.3212C7.46213 19.8691 6.46862 19.2059 5.6319 18.3693C4.79518 17.5328 4.13167 16.5394 3.67938 15.4461C3.22709 14.3528 2.99488 13.181 2.99607 11.9978C2.99607 7.01591 7.02202 2.99796 12.004 2.99796ZM11.988 4.98394C11.8558 4.98523 11.7252 5.01272 11.6037 5.06481C11.4822 5.1169 11.3722 5.19256 11.2802 5.28741C11.1881 5.38226 11.1158 5.49442 11.0673 5.61741C11.0189 5.7404 10.9953 5.87177 10.998 6.00392V11.9978C10.9985 12.1294 11.025 12.2596 11.076 12.3809C11.127 12.5023 11.2014 12.6123 11.295 12.7048L15.2949 16.7068C15.3874 16.802 15.498 16.8778 15.6201 16.9299C15.7423 16.9819 15.8736 17.0091 16.0063 17.0099C16.1391 17.0106 16.2707 16.9849 16.3934 16.9343C16.5161 16.8837 16.6275 16.8091 16.7212 16.715C16.8148 16.6208 16.8887 16.509 16.9386 16.386C16.9886 16.263 17.0135 16.1312 17.012 15.9985C17.0105 15.8657 16.9825 15.7346 16.9298 15.6128C16.8771 15.4909 16.8006 15.3808 16.7049 15.2888L12.9999 11.5839V6.00392C13.0026 5.86991 12.9784 5.73673 12.9286 5.61229C12.8787 5.48785 12.8044 5.37469 12.71 5.27954C12.6156 5.18439 12.5031 5.10919 12.379 5.05841C12.255 5.00763 12.122 4.9823 11.988 4.98394Z" fill="white" fill-opacity="0.8"/>
</g>
<defs>
<clipPath id="clip0_455_774">
<rect width="24" height="24" fill="white"/>
</clipPath>
</defs>
</svg>
