<svg width="37" height="23" viewBox="0 0 37 23" fill="none" xmlns="http://www.w3.org/2000/svg">
	<g clip-path="url(#clip0_167_167)">
		<mask id="mask0_167_167" style="mask-type:luminance" maskUnits="userSpaceOnUse" x="0" y="0" width="37" height="23">
			<path d="M0 0H37V22.5818H0V0Z" fill="white" />
		</mask>
		<g mask="url(#mask0_167_167)">
			<path fill-rule="evenodd" clip-rule="evenodd" d="M18.5 0C13.5667 0 10.4833 2.50909 9.25 7.52727C11.1 5.01818 13.2583 4.07727 15.725 4.70455C17.1324 5.06209 18.1382 6.10127 19.2516 7.25058C21.0653 9.12333 23.1647 11.2909 27.75 11.2909C32.6833 11.2909 35.7667 8.78182 37 3.76364C35.15 6.27273 32.9917 7.21364 30.525 6.58636C29.1176 6.22882 28.1118 5.18964 26.9984 4.04033C25.1847 2.16758 23.0853 0 18.5 0ZM9.25 11.2909C4.31667 11.2909 1.23333 13.8 0 18.8182C1.85 16.3091 4.00833 15.3682 6.475 15.9955C7.88237 16.3537 8.88822 17.3922 10.0016 18.5415C11.8153 20.4142 13.9147 22.5818 18.5 22.5818C23.4333 22.5818 26.5167 20.0727 27.75 15.0545C25.9 17.5636 23.7417 18.5045 21.275 17.8773C19.8676 17.5197 18.8618 16.4805 17.7484 15.3312C15.9347 13.4585 13.8353 11.2909 9.25 11.2909Z" fill="#38BDF8" />
		</g>
	</g>
	<defs>
		<clipPath id="clip0_167_167">
			<rect width="37" height="23" fill="white" />
		</clipPath>
	</defs>
</svg>
