<svg width="151" height="28" viewBox="0 0 151 28" fill="none" xmlns="http://www.w3.org/2000/svg">
<path d="M58.9148 7.81286V5.27273H72.2607V7.81286H67.0906V22H64.0849V7.81286H58.9148ZM76.6058 22.2532C75.8108 22.2532 75.0948 22.1116 74.4577 21.8285C73.8261 21.5399 73.3252 21.1152 72.9549 20.5543C72.5901 19.9935 72.4077 19.302 72.4077 18.4798C72.4077 17.7719 72.5384 17.1866 72.7997 16.7237C73.0611 16.2609 73.4177 15.8906 73.8697 15.6129C74.3216 15.3352 74.8307 15.1256 75.397 14.984C75.9688 14.837 76.5595 14.7308 77.1694 14.6655C77.9045 14.5893 78.5007 14.5212 78.9581 14.4613C79.4155 14.396 79.7476 14.2979 79.9545 14.1673C80.1669 14.0311 80.2731 13.8215 80.2731 13.5384V13.4893C80.2731 12.8741 80.0907 12.3976 79.7259 12.06C79.361 11.7224 78.8356 11.5536 78.1495 11.5536C77.4253 11.5536 76.8509 11.7115 76.4261 12.0273C76.0069 12.3432 75.7237 12.7161 75.5767 13.1463L72.8161 12.7543C73.0339 11.992 73.3932 11.3549 73.8942 10.843C74.3951 10.3258 75.0077 9.93916 75.7319 9.68324C76.4561 9.42188 77.2565 9.29119 78.1332 9.29119C78.7376 9.29119 79.3393 9.36198 79.9382 9.50355C80.5372 9.64512 81.0844 9.87926 81.5799 10.206C82.0754 10.5272 82.4729 10.9656 82.7724 11.521C83.0773 12.0763 83.2298 12.7706 83.2298 13.6037V22H80.3874V20.2766H80.2894C80.1097 20.6251 79.8565 20.9518 79.5298 21.2567C79.2086 21.5562 78.8029 21.7985 78.3129 21.9837C77.8282 22.1634 77.2592 22.2532 76.6058 22.2532ZM77.3736 20.0806C77.9671 20.0806 78.4817 19.9635 78.9173 19.7294C79.3529 19.4898 79.6877 19.174 79.9219 18.782C80.1615 18.3899 80.2812 17.9625 80.2812 17.4996V16.0213C80.1887 16.0975 80.0308 16.1683 79.8075 16.2337C79.5897 16.299 79.3447 16.3562 79.0724 16.4052C78.8002 16.4542 78.5307 16.4978 78.2638 16.5359C77.997 16.574 77.7656 16.6067 77.5696 16.6339C77.1286 16.6938 76.7338 16.7918 76.3853 16.9279C76.0368 17.064 75.7618 17.2546 75.5604 17.4996C75.3589 17.7392 75.2582 18.0496 75.2582 18.4308C75.2582 18.9753 75.4569 19.3864 75.8544 19.6641C76.2519 19.9418 76.7583 20.0806 77.3736 20.0806ZM86.2028 22V9.45455H89.1594V22H86.2028ZM87.6893 7.67401C87.221 7.67401 86.8181 7.51882 86.4805 7.20845C86.1429 6.89264 85.9741 6.5142 85.9741 6.07315C85.9741 5.62666 86.1429 5.24822 86.4805 4.93785C86.8181 4.62204 87.221 4.46413 87.6893 4.46413C88.163 4.46413 88.5659 4.62204 88.8981 4.93785C89.2357 5.24822 89.4045 5.62666 89.4045 6.07315C89.4045 6.5142 89.2357 6.89264 88.8981 7.20845C88.5659 7.51882 88.163 7.67401 87.6893 7.67401ZM95.1565 5.27273V22H92.1998V5.27273H95.1565ZM100.786 22L97.2413 9.45455H100.255L102.46 18.2756H102.575L104.829 9.45455H107.81L110.064 18.2266H110.187L112.36 9.45455H115.382L111.829 22H108.749L106.397 13.522H106.226L103.873 22H100.786ZM117.446 22V9.45455H120.403V22H117.446ZM118.932 7.67401C118.464 7.67401 118.061 7.51882 117.724 7.20845C117.386 6.89264 117.217 6.5142 117.217 6.07315C117.217 5.62666 117.386 5.24822 117.724 4.93785C118.061 4.62204 118.464 4.46413 118.932 4.46413C119.406 4.46413 119.809 4.62204 120.141 4.93785C120.479 5.24822 120.648 5.62666 120.648 6.07315C120.648 6.5142 120.479 6.89264 120.141 7.20845C119.809 7.51882 119.406 7.67401 118.932 7.67401ZM126.4 14.6491V22H123.443V9.45455H126.269V11.5863H126.416C126.705 10.8839 127.165 10.3258 127.796 9.91193C128.433 9.49811 129.22 9.29119 130.157 9.29119C131.023 9.29119 131.777 9.47633 132.419 9.84659C133.067 10.2169 133.568 10.7532 133.922 11.4556C134.281 12.158 134.458 13.0102 134.453 14.0121V22H131.496V14.4695C131.496 13.6309 131.278 12.9748 130.843 12.5011C130.413 12.0273 129.816 11.7905 129.054 11.7905C128.537 11.7905 128.077 11.9048 127.674 12.1335C127.276 12.3568 126.963 12.6808 126.735 13.1055C126.511 13.5302 126.4 14.0447 126.4 14.6491ZM142.114 22.2205C141.129 22.2205 140.247 21.9673 139.468 21.4609C138.689 20.9545 138.074 20.2195 137.622 19.2557C137.17 18.2919 136.944 17.1212 136.944 15.7436C136.944 14.3497 137.173 13.1735 137.63 12.2152C138.093 11.2514 138.716 10.5245 139.501 10.0344C140.285 9.53894 141.159 9.29119 142.122 9.29119C142.857 9.29119 143.462 9.41643 143.936 9.6669C144.409 9.91193 144.785 10.2087 145.063 10.5572C145.34 10.9002 145.555 11.2242 145.708 11.5291H145.83V5.27273H148.795V22H145.888V20.0234H145.708C145.555 20.3284 145.335 20.6523 145.046 20.9954C144.758 21.333 144.377 21.6216 143.903 21.8612C143.429 22.1007 142.833 22.2205 142.114 22.2205ZM142.939 19.7947C143.565 19.7947 144.099 19.6259 144.54 19.2884C144.981 18.9453 145.316 18.4689 145.545 17.859C145.773 17.2492 145.888 16.5386 145.888 15.7273C145.888 14.916 145.773 14.2108 145.545 13.6119C145.321 13.0129 144.989 12.5473 144.548 12.2152C144.113 11.883 143.576 11.717 142.939 11.717C142.28 11.717 141.73 11.8885 141.289 12.2315C140.848 12.5746 140.516 13.0483 140.293 13.6527C140.07 14.2571 139.958 14.9486 139.958 15.7273C139.958 16.5114 140.07 17.2111 140.293 17.8263C140.521 18.4362 140.856 18.9181 141.297 19.272C141.744 19.6205 142.291 19.7947 142.939 19.7947Z" fill="white" fill-opacity="0.85"/>
<g clip-path="url(#clip0_22_76)">
<mask id="mask0_22_76" style="mask-type:luminance" maskUnits="userSpaceOnUse" x="0" y="0" width="44" height="27">
<path d="M0 0H44V26.5091H0V0Z" fill="white"/>
</mask>
<g mask="url(#mask0_22_76)">
<path fill-rule="evenodd" clip-rule="evenodd" d="M22 0C16.1333 0 12.4667 2.94545 11 8.83636C13.2 5.89091 15.7667 4.78636 18.7 5.52273C20.3736 5.94245 21.5698 7.16236 22.8939 8.51155C25.0507 10.71 27.5473 13.2545 33 13.2545C38.8667 13.2545 42.5333 10.3091 44 4.41818C41.8 7.36364 39.2333 8.46818 36.3 7.73182C34.6264 7.31209 33.4302 6.09218 32.1061 4.743C29.9493 2.54455 27.4527 0 22 0ZM11 13.2545C5.13333 13.2545 1.46667 16.2 0 22.0909C2.2 19.1455 4.76667 18.0409 7.7 18.7773C9.37363 19.1978 10.5698 20.4169 11.8939 21.7661C14.0507 23.9645 16.5473 26.5091 22 26.5091C27.8667 26.5091 31.5333 23.5636 33 17.6727C30.8 20.6182 28.2333 21.7227 25.3 20.9864C23.6264 20.5666 22.4302 19.3467 21.1061 17.9975C18.9493 15.7991 16.4527 13.2545 11 13.2545Z" fill="#38BDF8"/>
</g>
</g>
<defs>
<clipPath id="clip0_22_76">
<rect width="44" height="27" fill="white"/>
</clipPath>
</defs>
</svg>
