<svg width="41" height="46" viewBox="0 0 41 46" fill="none" xmlns="http://www.w3.org/2000/svg">
	<path d="M30.0314 16.5298C32.9634 18.6423 36.5552 19.8852 40.4345 19.8852V12.3611C39.7003 12.3613 38.968 12.2841 38.2498 12.1307V18.0533C34.3707 18.0533 30.7794 16.8103 27.8466 14.698V30.0525C27.8466 37.7335 21.6688 43.9598 14.0486 43.9598C11.2053 43.9598 8.56252 43.0934 6.3672 41.6076C8.87279 44.1898 12.367 45.7916 16.2328 45.7916C23.8536 45.7916 30.0317 39.5653 30.0317 31.8839V16.5298H30.0314ZM32.7265 8.93894C31.2281 7.28898 30.2443 5.15671 30.0314 2.79939V1.83163H27.961C28.4822 4.82778 30.2597 7.38751 32.7265 8.93894ZM11.187 35.7133C10.3498 34.607 9.89744 33.2535 9.89947 31.8619C9.89947 28.3489 12.7252 25.5005 16.2113 25.5005C16.861 25.5003 17.5068 25.6006 18.126 25.7986V18.1064C17.4024 18.0064 16.6721 17.964 15.9422 17.9796V23.9668C15.3226 23.7688 14.6764 23.6682 14.0266 23.6689C10.5404 23.6689 7.7149 26.517 7.7149 30.0305C7.7149 32.5148 9.12728 34.6656 11.187 35.7133Z" fill="#FF004F" />
	<path d="M27.8466 14.698C30.7794 16.8103 34.3707 18.0533 38.2498 18.0533V12.1307C36.0845 11.6659 34.1677 10.5253 32.7265 8.93894C30.2597 7.38751 28.4822 4.82778 27.961 1.83163H22.5228V31.8836C22.5105 35.3871 19.6897 38.2239 16.211 38.2239C14.1611 38.2239 12.3399 37.239 11.1866 35.7133C9.12697 34.6656 7.71459 32.5146 7.71459 30.0306C7.71459 26.5174 10.5401 23.669 14.0263 23.669C14.6942 23.669 15.338 23.7738 15.9419 23.967V17.9797C8.45545 18.1356 2.43457 24.3011 2.43457 31.8838C2.43457 35.669 3.93375 39.1003 6.3672 41.6076C8.56252 43.0934 11.2053 43.9598 14.0486 43.9598C21.6688 43.9598 27.8466 37.7335 27.8466 30.0525V14.698Z" fill="black" />
	<path d="M38.2498 12.1307L38.2498 10.5292C36.2972 10.5322 34.3831 9.98119 32.7265 8.93894C34.1929 10.5572 36.1239 11.673 38.2498 12.1307ZM27.961 1.83163C27.9113 1.5453 27.8731 1.25708 27.8467 0.967756V0H20.338V30.0523C20.326 33.5553 17.5053 36.3921 14.0263 36.3921C13.0049 36.3921 12.0406 36.1475 11.1866 35.7133C12.3399 37.239 14.1611 38.2239 16.211 38.2239C19.6894 38.2239 22.5107 35.3871 22.5228 31.8836V1.83163H27.961ZM15.9422 17.9796V16.2749C15.3148 16.1885 14.6822 16.1451 14.0489 16.1454C6.42782 16.1453 0.25 22.3719 0.25 30.0523C0.25 34.8675 2.67799 39.1112 6.36751 41.6074C3.93406 39.1003 2.43457 35.6688 2.43457 31.8838C2.43457 24.3012 8.45545 18.1355 15.9422 17.9796Z" fill="#00F2EA" />
</svg>
