<svg width="27" height="27" viewBox="0 0 27 27" fill="none" xmlns="http://www.w3.org/2000/svg">
<g clip-path="url(#clip0_167_144)">
<path d="M24.3633 0H2.63672C1.1805 0 0 1.1805 0 2.63672V24.3633C0 25.8195 1.1805 27 2.63672 27H24.3633C25.8195 27 27 25.8195 27 24.3633V2.63672C27 1.1805 25.8195 0 24.3633 0Z" fill="#3178C6"/>
<path d="M24.3633 0H2.63672C1.1805 0 0 1.1805 0 2.63672V24.3633C0 25.8195 1.1805 27 2.63672 27H24.3633C25.8195 27 27 25.8195 27 24.3633V2.63672C27 1.1805 25.8195 0 24.3633 0Z" fill="#3178C6"/>
<path fill-rule="evenodd" clip-rule="evenodd" d="M16.7136 21.4853V24.1252C17.1427 24.3452 17.6503 24.5101 18.2363 24.6202C18.8223 24.7302 19.4398 24.7852 20.0891 24.7852C20.7219 24.7852 21.3229 24.7247 21.8924 24.6036C22.4619 24.4827 22.9612 24.2833 23.3904 24.0055C23.8195 23.7278 24.1593 23.3648 24.4096 22.9166C24.66 22.4683 24.7852 21.9142 24.7852 21.2543C24.7852 20.7758 24.7136 20.3564 24.5706 19.9962C24.4275 19.636 24.2212 19.3156 23.9516 19.0351C23.682 18.7546 23.3587 18.503 22.9819 18.2802C22.605 18.0575 22.1799 17.8471 21.7067 17.6491C21.3601 17.5061 21.0492 17.3673 20.7741 17.2325C20.499 17.0977 20.2652 16.9603 20.0726 16.8201C19.88 16.6798 19.7315 16.5313 19.6269 16.3746C19.5224 16.2178 19.4701 16.0404 19.4701 15.8424C19.4701 15.6609 19.5169 15.4973 19.6104 15.3516C19.704 15.2058 19.836 15.0807 20.0066 14.9762C20.1772 14.8717 20.3862 14.7906 20.6338 14.7328C20.8814 14.6751 21.1565 14.6462 21.4591 14.6462C21.6792 14.6462 21.9117 14.6627 22.1565 14.6957C22.4014 14.7287 22.6476 14.7796 22.8952 14.8483C23.1428 14.9171 23.3835 15.0037 23.6174 15.1082C23.8512 15.2127 24.0671 15.3337 24.2652 15.4712V13.0045C23.8636 12.8505 23.4248 12.7364 22.9488 12.6622C22.4729 12.5879 21.9268 12.5508 21.3106 12.5508C20.6833 12.5508 20.0891 12.6182 19.5279 12.7529C18.9667 12.8876 18.4729 13.098 18.0464 13.384C17.62 13.67 17.2831 14.0344 17.0355 14.4771C16.7879 14.9198 16.6641 15.4492 16.6641 16.0652C16.6641 16.8516 16.891 17.5226 17.345 18.0781C17.7989 18.6336 18.488 19.1038 19.4124 19.4888C19.7755 19.6373 20.1139 19.783 20.4275 19.9261C20.7411 20.0691 21.0121 20.2176 21.2404 20.3716C21.4687 20.5255 21.6489 20.6933 21.781 20.8748C21.9131 21.0563 21.9791 21.2625 21.9791 21.4935C21.9791 21.664 21.9378 21.8221 21.8553 21.9679C21.7728 22.1136 21.6476 22.2401 21.4798 22.3474C21.312 22.4546 21.1029 22.5385 20.8525 22.5989C20.6022 22.6595 20.3092 22.6897 19.9736 22.6897C19.4013 22.6897 18.8347 22.5893 18.2734 22.3886C17.7122 22.1879 17.1922 21.8868 16.7136 21.4853ZM12.2755 14.9809H15.6621V12.8145H6.22266V14.9809H9.5927V24.627H12.2755V14.9809Z" fill="#F2F2F2"/>
</g>
<defs>
<clipPath id="clip0_167_144">
<rect width="27" height="27" fill="white"/>
</clipPath>
</defs>
</svg>
