<svg width="171" height="30" viewBox="0 0 171 30" fill="none" xmlns="http://www.w3.org/2000/svg">
<g clip-path="url(#clip0_22_8)">
<path d="M27.0703 0H2.92969C1.31167 0 0 1.31167 0 2.92969V27.0703C0 28.6883 1.31167 30 2.92969 30H27.0703C28.6883 30 30 28.6883 30 27.0703V2.92969C30 1.31167 28.6883 0 27.0703 0Z" fill="#3178C6"/>
<path d="M27.0703 0H2.92969C1.31167 0 0 1.31167 0 2.92969V27.0703C0 28.6883 1.31167 30 2.92969 30H27.0703C28.6883 30 30 28.6883 30 27.0703V2.92969C30 1.31167 28.6883 0 27.0703 0Z" fill="#3178C6"/>
<path fill-rule="evenodd" clip-rule="evenodd" d="M18.5706 23.8725V26.8058C19.0475 27.0502 19.6114 27.2335 20.2625 27.3557C20.9136 27.4779 21.5998 27.5391 22.3212 27.5391C23.0243 27.5391 23.6921 27.4719 24.3249 27.3374C24.9577 27.203 25.5125 26.9814 25.9893 26.6728C26.4662 26.3643 26.8437 25.9609 27.1218 25.4629C27.4 24.9648 27.5391 24.3492 27.5391 23.6159C27.5391 23.0842 27.4596 22.6182 27.3006 22.218C27.1417 21.8177 26.9125 21.4618 26.6129 21.1501C26.3133 20.8385 25.9542 20.5588 25.5354 20.3113C25.1166 20.0638 24.6444 19.8301 24.1186 19.6102C23.7335 19.4512 23.388 19.297 23.0824 19.1473C22.7767 18.9975 22.5169 18.8447 22.3029 18.6889C22.0889 18.5331 21.9238 18.3681 21.8077 18.1939C21.6916 18.0197 21.6335 17.8227 21.6335 17.6027C21.6335 17.4011 21.6854 17.2192 21.7894 17.0573C21.8933 16.8953 22.04 16.7563 22.2295 16.6402C22.4191 16.5241 22.6513 16.434 22.9264 16.3698C23.2016 16.3056 23.5072 16.2736 23.8435 16.2736C24.088 16.2736 24.3463 16.2919 24.6183 16.3286C24.8904 16.3652 25.164 16.4218 25.4391 16.4981C25.7142 16.5745 25.9816 16.6708 26.2415 16.7869C26.5013 16.903 26.7413 17.0374 26.9613 17.1902V14.4495C26.5151 14.2784 26.0275 14.1516 25.4987 14.0691C24.9699 13.9866 24.3631 13.9453 23.6784 13.9453C22.9815 13.9453 22.3212 14.0202 21.6977 14.1699C21.0741 14.3196 20.5254 14.5533 20.0516 14.8711C19.5778 15.1889 19.2034 15.5937 18.9283 16.0857C18.6532 16.5776 18.5156 17.1657 18.5156 17.8502C18.5156 18.724 18.7678 19.4696 19.2722 20.0868C19.7765 20.704 20.5422 21.2265 21.5693 21.6543C21.9728 21.8193 22.3488 21.9812 22.6972 22.1401C23.0457 22.299 23.3468 22.464 23.6004 22.6351C23.8542 22.8062 24.0544 22.9925 24.2012 23.1942C24.3479 23.3958 24.4212 23.625 24.4212 23.8817C24.4212 24.0711 24.3754 24.2468 24.2837 24.4087C24.192 24.5707 24.0529 24.7112 23.8664 24.8304C23.68 24.9496 23.4476 25.0427 23.1695 25.1099C22.8913 25.1772 22.5658 25.2108 22.1929 25.2108C21.5571 25.2108 20.9274 25.0993 20.3038 24.8762C19.6802 24.6532 19.1025 24.3186 18.5706 23.8725ZM13.6395 16.6454H17.4023V14.2383H6.91406V16.6454H10.6586V27.3633H13.6395V16.6454Z" fill="#F2F2F2"/>
</g>
<path d="M43.8168 10.1886V7.27273H57.5547V10.1886H52.4336V24H48.9379V10.1886H43.8168ZM61.1524 28.7045C60.7113 28.7045 60.2975 28.6692 59.9109 28.5984C59.5297 28.533 59.2139 28.4486 58.9634 28.3452L59.7475 25.7479C60.1559 25.8731 60.5235 25.9412 60.8502 25.9521C61.1823 25.9629 61.4682 25.8867 61.7078 25.7234C61.9528 25.56 62.1515 25.2823 62.304 24.8903L62.5082 24.3594L58.0078 11.4545H61.6669L64.2642 20.6676H64.3949L67.0167 11.4545H70.7003L65.8242 25.3558C65.5901 26.031 65.2716 26.6191 64.8686 27.12C64.4711 27.6264 63.9675 28.0157 63.3576 28.288C62.7478 28.5657 62.0127 28.7045 61.1524 28.7045ZM73.1708 28.7045V11.4545H76.6012V13.5618H76.7564C76.9089 13.2242 77.1294 12.8812 77.418 12.5327C77.712 12.1787 78.0932 11.8847 78.5615 11.6506C79.0352 11.411 79.6233 11.2912 80.3257 11.2912C81.2404 11.2912 82.0844 11.5308 82.8576 12.0099C83.6308 12.4837 84.2488 13.1997 84.7117 14.158C85.1745 15.1109 85.4059 16.3061 85.4059 17.7436C85.4059 19.143 85.18 20.3246 84.728 21.2884C84.2815 22.2467 83.6717 22.9736 82.8985 23.4691C82.1307 23.9592 81.2704 24.2042 80.3175 24.2042C79.6423 24.2042 79.0679 24.0926 78.5941 23.8693C78.1259 23.6461 77.742 23.3656 77.4425 23.0281C77.143 22.685 76.9143 22.3393 76.7564 21.9908H76.6502V28.7045H73.1708ZM76.5767 17.7273C76.5767 18.4732 76.6802 19.1239 76.8871 19.6793C77.094 20.2347 77.3935 20.6676 77.7855 20.978C78.1776 21.2829 78.654 21.4354 79.2149 21.4354C79.7812 21.4354 80.2603 21.2802 80.6524 20.9698C81.0444 20.654 81.3412 20.2184 81.5426 19.663C81.7496 19.1022 81.853 18.4569 81.853 17.7273C81.853 17.0031 81.7523 16.366 81.5508 15.8161C81.3493 15.2661 81.0526 14.8359 80.6605 14.5256C80.2685 14.2152 79.7866 14.06 79.2149 14.06C78.6486 14.06 78.1694 14.2098 77.7774 14.5092C77.3908 14.8087 77.094 15.2334 76.8871 15.7834C76.6802 16.3333 76.5767 16.9813 76.5767 17.7273ZM94.1329 24.245C92.8424 24.245 91.7316 23.9837 90.8005 23.4609C89.8748 22.9328 89.1615 22.1868 88.6606 21.223C88.1596 20.2538 87.9091 19.1076 87.9091 17.7844C87.9091 16.494 88.1596 15.3614 88.6606 14.3867C89.1615 13.4121 89.8666 12.6525 90.776 12.108C91.6907 11.5634 92.7634 11.2912 93.994 11.2912C94.8217 11.2912 95.5921 11.4246 96.3054 11.6914C97.0242 11.9528 97.6504 12.3475 98.184 12.8757C98.7231 13.4039 99.1423 14.0682 99.4418 14.8686C99.7413 15.6636 99.891 16.5947 99.891 17.6619V18.6175H89.2976V16.4613H96.6158C96.6158 15.9603 96.5069 15.5166 96.2891 15.13C96.0713 14.7434 95.7691 14.4412 95.3825 14.2234C95.0013 14.0001 94.5576 13.8885 94.0512 13.8885C93.523 13.8885 93.0547 14.011 92.6463 14.256C92.2434 14.4956 91.9276 14.8196 91.6989 15.228C91.4702 15.6309 91.3531 16.0801 91.3477 16.5756V18.6257C91.3477 19.2464 91.462 19.7828 91.6907 20.2347C91.9249 20.6867 92.2543 21.0352 92.679 21.2802C93.1037 21.5252 93.6074 21.6477 94.19 21.6477C94.5766 21.6477 94.9306 21.5933 95.2518 21.4844C95.5731 21.3755 95.8481 21.2121 96.0767 20.9943C96.3054 20.7765 96.4797 20.5097 96.5995 20.1939L99.8175 20.4062C99.6542 21.1795 99.3193 21.8546 98.8129 22.4318C98.312 23.0036 97.664 23.45 96.869 23.7713C96.0795 24.0871 95.1674 24.245 94.1329 24.245ZM113.29 15.032L110.104 15.228C110.05 14.9557 109.933 14.7107 109.753 14.4929C109.574 14.2696 109.337 14.0927 109.043 13.962C108.754 13.8259 108.408 13.7578 108.005 13.7578C107.466 13.7578 107.012 13.8722 106.641 14.1009C106.271 14.3241 106.086 14.6236 106.086 14.9993C106.086 15.2988 106.206 15.552 106.445 15.7589C106.685 15.9658 107.096 16.1319 107.679 16.2571L109.949 16.7145C111.169 16.965 112.078 17.3679 112.677 17.9233C113.276 18.4787 113.576 19.2083 113.576 20.1122C113.576 20.9344 113.333 21.6559 112.849 22.2766C112.37 22.8974 111.711 23.382 110.872 23.7305C110.039 24.0735 109.078 24.245 107.989 24.245C106.328 24.245 105.005 23.8993 104.02 23.2077C103.039 22.5108 102.465 21.5633 102.296 20.3654L105.718 20.1857C105.822 20.6921 106.072 21.0787 106.47 21.3455C106.867 21.6069 107.376 21.7376 107.997 21.7376C108.607 21.7376 109.097 21.6205 109.467 21.3864C109.843 21.1468 110.034 20.8391 110.039 20.4634C110.034 20.1476 109.9 19.889 109.639 19.6875C109.378 19.4806 108.975 19.3227 108.43 19.2138L106.258 18.7809C105.032 18.5359 104.12 18.1112 103.521 17.5067C102.928 16.9023 102.631 16.1319 102.631 15.1953C102.631 14.3894 102.849 13.6952 103.285 13.1126C103.726 12.5299 104.344 12.0807 105.139 11.7649C105.939 11.4491 106.876 11.2912 107.948 11.2912C109.533 11.2912 110.78 11.6261 111.689 12.2958C112.604 12.9656 113.137 13.8776 113.29 15.032ZM122.125 24.245C120.84 24.245 119.735 23.9728 118.809 23.4283C117.889 22.8783 117.181 22.116 116.685 21.1413C116.195 20.1667 115.95 19.045 115.95 17.7763C115.95 16.4912 116.198 15.3641 116.694 14.3949C117.194 13.4202 117.905 12.6606 118.825 12.1161C119.745 11.5662 120.84 11.2912 122.109 11.2912C123.203 11.2912 124.161 11.4899 124.984 11.8874C125.806 12.2849 126.457 12.843 126.936 13.5618C127.415 14.2805 127.679 15.1245 127.728 16.0938H124.445C124.352 15.4676 124.107 14.9639 123.709 14.5827C123.317 14.1961 122.803 14.0028 122.166 14.0028C121.627 14.0028 121.156 14.1499 120.753 14.4439C120.355 14.7325 120.045 15.1545 119.822 15.7099C119.598 16.2653 119.487 16.9377 119.487 17.7273C119.487 18.5277 119.596 19.2083 119.814 19.7692C120.037 20.33 120.35 20.7575 120.753 21.0515C121.156 21.3455 121.627 21.4925 122.166 21.4925C122.563 21.4925 122.92 21.4109 123.236 21.2475C123.557 21.0842 123.821 20.8473 124.028 20.5369C124.24 20.2211 124.379 19.8427 124.445 19.4016H127.728C127.674 20.36 127.412 21.204 126.944 21.9336C126.481 22.6578 125.841 23.2241 125.024 23.6325C124.208 24.0408 123.241 24.245 122.125 24.245ZM130.646 24V11.4545H134.019V13.6435H134.15C134.378 12.8648 134.762 12.2768 135.301 11.8793C135.84 11.4763 136.461 11.2749 137.163 11.2749C137.338 11.2749 137.526 11.2857 137.727 11.3075C137.928 11.3293 138.105 11.3593 138.258 11.3974V14.4847C138.095 14.4357 137.869 14.3922 137.58 14.354C137.291 14.3159 137.027 14.2969 136.788 14.2969C136.276 14.2969 135.819 14.4085 135.416 14.6317C135.018 14.8495 134.702 15.1545 134.468 15.5465C134.239 15.9386 134.125 16.3905 134.125 16.9023V24H130.646ZM140.747 24V11.4545H144.226V24H140.747ZM142.495 9.83736C141.977 9.83736 141.534 9.66584 141.163 9.3228C140.799 8.97431 140.616 8.55776 140.616 8.07315C140.616 7.59399 140.799 7.18288 141.163 6.83984C141.534 6.49136 141.977 6.31712 142.495 6.31712C143.012 6.31712 143.453 6.49136 143.818 6.83984C144.188 7.18288 144.373 7.59399 144.373 8.07315C144.373 8.55776 144.188 8.97431 143.818 9.3228C143.453 9.66584 143.012 9.83736 142.495 9.83736ZM147.703 28.7045V11.4545H151.134V13.5618H151.289C151.441 13.2242 151.662 12.8812 151.951 12.5327C152.245 12.1787 152.626 11.8847 153.094 11.6506C153.568 11.411 154.156 11.2912 154.858 11.2912C155.773 11.2912 156.617 11.5308 157.39 12.0099C158.163 12.4837 158.781 13.1997 159.244 14.158C159.707 15.1109 159.938 16.3061 159.938 17.7436C159.938 19.143 159.713 20.3246 159.261 21.2884C158.814 22.2467 158.204 22.9736 157.431 23.4691C156.663 23.9592 155.803 24.2042 154.85 24.2042C154.175 24.2042 153.6 24.0926 153.127 23.8693C152.658 23.6461 152.275 23.3656 151.975 23.0281C151.676 22.685 151.447 22.3393 151.289 21.9908H151.183V28.7045H147.703ZM151.109 17.7273C151.109 18.4732 151.213 19.1239 151.42 19.6793C151.627 20.2347 151.926 20.6676 152.318 20.978C152.71 21.2829 153.187 21.4354 153.747 21.4354C154.314 21.4354 154.793 21.2802 155.185 20.9698C155.577 20.654 155.874 20.2184 156.075 19.663C156.282 19.1022 156.386 18.4569 156.386 17.7273C156.386 17.0031 156.285 16.366 156.083 15.8161C155.882 15.2661 155.585 14.8359 155.193 14.5256C154.801 14.2152 154.319 14.06 153.747 14.06C153.181 14.06 152.702 14.2098 152.31 14.5092C151.923 14.8087 151.627 15.2334 151.42 15.7834C151.213 16.3333 151.109 16.9813 151.109 17.7273ZM169.621 11.4545V14.0682H162.066V11.4545H169.621ZM163.781 8.44886H167.261V20.1449C167.261 20.4661 167.31 20.7166 167.408 20.8963C167.506 21.0705 167.642 21.1931 167.816 21.2638C167.996 21.3346 168.203 21.37 168.437 21.37C168.6 21.37 168.763 21.3564 168.927 21.3292C169.09 21.2965 169.215 21.272 169.303 21.2557L169.85 23.8448C169.675 23.8993 169.43 23.9619 169.115 24.0327C168.799 24.1089 168.415 24.1552 167.963 24.1715C167.124 24.2042 166.389 24.0926 165.758 23.8366C165.132 23.5807 164.644 23.1832 164.296 22.6442C163.947 22.1051 163.776 21.4245 163.781 20.6023V8.44886Z" fill="white" fill-opacity="0.86"/>
<defs>
<clipPath id="clip0_22_8">
<rect width="30" height="30" fill="white"/>
</clipPath>
</defs>
</svg>
