<svg width="47" height="33" viewBox="0 0 47 33" fill="none" xmlns="http://www.w3.org/2000/svg">
	<path d="M45.6081 5.83091C45.0804 3.8768 43.531 2.34116 41.5596 1.81808C37.99 0.869049 23.6697 0.869049 23.6697 0.869049C23.6697 0.869049 9.34948 0.869049 5.77978 1.81808C3.80836 2.34116 2.2591 3.8768 1.73137 5.83091C0.773926 9.3692 0.773926 16.7559 0.773926 16.7559C0.773926 16.7559 0.773926 24.1427 1.73137 27.681C2.2591 29.6351 3.80836 31.1708 5.77978 31.6937C9.34948 32.6428 23.6697 32.6428 23.6697 32.6428C23.6697 32.6428 37.99 32.6428 41.5596 31.6937C43.531 31.1708 45.0804 29.6351 45.6081 27.681C46.5656 24.1427 46.5656 16.7559 46.5656 16.7559C46.5656 16.7559 46.5617 9.3692 45.6081 5.83091Z" fill="#FF0000" />
	<path d="M19.0862 23.5641L30.9827 16.7566L19.0862 9.94893V23.5641Z" fill="white" />
</svg>
