<svg width="71" height="49" viewBox="0 0 71 49" fill="none" xmlns="http://www.w3.org/2000/svg">
	<g opacity="0.9" clip-path="url(#clip0_45_483)">
		<g clip-path="url(#clip1_45_483)">
			<path d="M69.5156 7.65194C68.6975 4.63841 66.2952 2.27023 63.2385 1.46355C57.7038 4.38094e-07 35.5 0 35.5 0C35.5 0 13.2965 4.38094e-07 7.76161 1.46355C4.70491 2.27023 2.30277 4.63841 1.48453 7.65194C4.44375e-07 13.1085 0 24.5 0 24.5C0 24.5 4.44375e-07 35.8915 1.48453 41.3482C2.30277 44.3617 4.70491 46.7298 7.76161 47.5364C13.2965 49 35.5 49 35.5 49C35.5 49 57.7038 49 63.2385 47.5364C66.2952 46.7298 68.6975 44.3617 69.5156 41.3482C71.0002 35.8915 71.0002 24.5 71.0002 24.5C71.0002 24.5 70.9943 13.1085 69.5156 7.65194Z" fill="#FF0000" />
			<path d="M28.3933 34.9992L46.8389 24.501L28.3933 14.0026V34.9992Z" fill="white" />
		</g>
	</g>
	<defs>
		<clipPath id="clip0_45_483">
			<rect width="71" height="49" fill="white" />
		</clipPath>
		<clipPath id="clip1_45_483">
			<rect width="71" height="49" fill="white" />
		</clipPath>
	</defs>
</svg>
