<?xml version="1.0" standalone="no"?>
<!DOCTYPE svg PUBLIC "-//W3C//DTD SVG 20010904//EN" "http://www.w3.org/TR/2001/REC-SVG-20010904/DTD/svg10.dtd">
<svg version="1.0" xmlns="http://www.w3.org/2000/svg" width="287.000000pt" height="287.000000pt" viewBox="0 0 287.000000 287.000000" preserveAspectRatio="xMidYMid meet">
	<metadata>
		Created by potrace 1.14, written by Peter Selinger 2001-2017
	</metadata>
	<g transform="translate(0.000000,287.000000) scale(0.100000,-0.100000)" fill="#000000" stroke="none">
		<path d="M1226 2854 c-381 -59 -712 -258 -941 -562 -130 -174 -234 -422 -269
-642 -17 -108 -15 -361 3 -450 6 -30 14 -68 17 -85 7 -43 68 -223 95 -281 103
-220 272 -423 474 -568 154 -111 397 -214 565 -241 19 -3 60 -9 90 -14 81 -13
342 -6 437 12 370 70 713 294 922 603 43 63 163 288 159 297 -1 1 8 31 20 67
55 170 67 252 66 460 -1 290 -72 528 -229 771 -44 67 -56 83 -133 171 -130
150 -323 287 -513 366 -81 33 -232 80 -289 88 -19 3 -46 7 -60 10 -65 13 -330
12 -414 -2z" />
	</g>
</svg>
